<?xml version="1.0" encoding="utf-8"?>
<!-- Generator: Adobe Illustrator 16.0.3, SVG Export Plug-In . SVG Version: 6.00 Build 0)  -->
<!DOCTYPE svg PUBLIC "-//W3C//DTD SVG 1.1//EN" "http://www.w3.org/Graphics/SVG/1.1/DTD/svg11.dtd">
<svg version="1.1" id="Layer_2" xmlns="http://www.w3.org/2000/svg" xmlns:xlink="http://www.w3.org/1999/xlink" x="0px" y="0px"
	 width="1920px" height="1080px" viewBox="0 0 1920 1080" enable-background="new 0 0 1920 1080" xml:space="preserve">
<symbol  id="q1_3" viewBox="-60.704 -114.499 121.408 228.998">
	<g>
		<path fill="#003300" d="M-25.638-47.37c-2.617,0-5.193,0.856-7.313,2.485c-2.956,2.271-4.688,5.787-4.688,9.515
			c0,0.873,0.037,2.855,0.073,4.696c0.028,1.411,0.056,2.728,0.056,3.229v10.114c0,8.482,1.315,16.703,3.908,24.433
			c2.723,8.113,7.29,15.681,13.575,22.488c0.242,0.263,0.496,0.517,0.761,0.754c0.388,0.429,1.126,1.282,1.55,1.774
			c0.849,0.981,1.394,1.611,1.871,2.113c0.26,0.271,1.067,1.07,2.134,2.114c1.394,1.366,5.019,4.916,6.03,6.055
			c0.655,0.899,1.231,1.834,1.712,2.769c0.223,0.437,0.362,0.838,0.422,1.229c0.165,1.071,0.248,2.431,0.248,4.044
			c0,0.271-0.023,0.653-0.134,0.926c-0.024,0.058-0.039,0.09-0.128,0.172c-0.12,0.112-0.451,0.366-1.151,0.646
			c-0.277,0.111-0.937,0.304-2.177,0.304c-2.788,0-5.398-0.789-7.979-2.411c-1.858-1.169-4.82-3.954-8.373-10.584
			c-2.103-3.925-6.185-6.333-10.573-6.333c-0.395,0-0.79,0.02-1.188,0.059c-4.827,0.479-8.893,3.817-10.3,8.46
			c-0.419,1.38-1.559,5.322-2.757,9.471c-1.226,4.239-2.614,9.046-3.175,10.901c-1.015,3.354-4.842,13.861-5.928,16.14
			c-2.907,5.161-1.61,11.709,3.104,15.363c4.539,3.521,9.032,6.643,13.356,9.273c4.657,2.833,9.417,5.104,14.148,6.751
			c4.569,1.59,9.408,2.819,14.384,3.657c4.987,0.838,10.403,1.263,16.104,1.263c9.176,0,17.502-1.421,24.749-4.222
			c7.359-2.852,13.649-6.77,18.7-11.648c5.107-4.941,8.989-10.64,11.544-16.938c2.507-6.186,3.777-12.664,3.777-19.263
			c0-6.6-0.788-12.665-2.342-18.026c-1.499-5.168-3.462-9.928-5.835-14.145c-2.459-4.37-5.442-8.323-8.865-11.747
			c-3.089-3.088-6.201-5.786-9.252-8.021c-0.143-0.104-0.287-0.205-0.434-0.306c-1.375-0.925-7.718-5.833-9.164-7.171
			c-0.302-0.31-0.621-0.602-0.955-0.876c-5.042-4.146-7.201-7.131-8.126-8.902c-1.21-2.321-1.798-4.893-1.798-7.854
			c0-1.716,0.274-7.836,0.357-9.03c0.072-0.97,0.557-4.844,0.76-5.831c0.844-3.567-0.003-7.278-2.279-10.154
			c-2.275-2.877-5.753-4.506-9.421-4.506c-4.459,0-8.896-0.428-13.188-0.84c-4.571-0.438-8.614-0.887-12.712-1.979
			C-23.568-47.236-24.606-47.37-25.638-47.37z"/>
		<path fill="#003300" d="M-11.401-114.499c-20.791,0-37.705,16.915-37.705,37.705c0,20.791,16.914,37.706,37.705,37.706
			s37.705-16.915,37.705-37.706C26.304-97.584,9.39-114.499-11.401-114.499z"/>
		<path fill="#025C01" d="M-25.639-40.37c-1.308,0-2.596,0.429-3.656,1.243c-1.478,1.136-2.344,2.894-2.344,4.757
			c0,0.853,0.037,2.784,0.072,4.579c0.029,1.462,0.057,2.825,0.057,3.346v10.114c0,7.832,1.21,15.41,3.597,22.524
			c2.451,7.305,6.589,14.145,12.296,20.328c0.17,0.184,0.352,0.355,0.543,0.519c0.393,0.41,1.362,1.533,1.901,2.157
			c0.695,0.807,1.335,1.541,1.676,1.897c0.242,0.255,0.994,0.995,1.984,1.968c1.58,1.547,5.775,5.654,6.538,6.606
			c0.877,1.182,1.677,2.461,2.343,3.755c0.523,1.021,0.856,2.024,1.016,3.063c0.211,1.371,0.317,3.035,0.317,4.954
			c0,1.195-0.19,2.244-0.582,3.199c-0.358,0.872-0.876,1.619-1.578,2.276c-0.777,0.727-1.797,1.347-3.023,1.837
			c-1.211,0.484-2.694,0.73-4.406,0.73c-3.952,0-7.606-1.092-11.173-3.332c-3.596-2.263-7.118-6.577-10.468-12.829
			c-1.052-1.963-3.093-3.167-5.287-3.167c-0.197,0-0.395,0.01-0.594,0.028c-2.414,0.239-4.446,1.907-5.15,4.229
			c-0.415,1.368-1.545,5.279-2.733,9.392c-1.29,4.468-2.624,9.082-3.195,10.976c-1.161,3.836-5.43,15.486-6.384,17.246
			c-1.584,2.605-0.917,5.912,1.493,7.78c4.36,3.384,8.667,6.373,12.798,8.89c4.296,2.612,8.669,4.703,13.001,6.211
			c4.252,1.478,8.763,2.624,13.409,3.406c4.657,0.781,9.738,1.18,15.106,1.18c8.433,0,16.031-1.285,22.585-3.818
			c6.607-2.557,12.224-6.044,16.695-10.365c4.499-4.354,7.914-9.358,10.152-14.881c2.215-5.465,3.338-11.186,3.338-17.007
			c0-6.033-0.708-11.537-2.105-16.356c-1.37-4.727-3.153-9.056-5.301-12.87c-2.19-3.896-4.842-7.409-7.879-10.447
			c-2.872-2.871-5.75-5.37-8.556-7.426c-0.071-0.053-0.144-0.104-0.217-0.152c-1.785-1.188-8.928-6.76-10.063-7.904
			c-0.176-0.186-0.341-0.338-0.538-0.5c-4.674-3.844-7.916-7.466-9.635-10.766C8.745-6.195,7.935-9.671,7.935-13.625
			c0-1.999,0.293-8.307,0.371-9.443c0.081-1.177,0.652-5.715,0.885-6.698c0.422-1.785,0.004-3.664-1.134-5.104
			c-1.138-1.438-2.871-2.277-4.705-2.277c-4.746,0-9.33-0.438-13.763-0.863c-4.842-0.467-9.144-0.944-13.683-2.153
			C-24.603-40.303-25.122-40.37-25.639-40.37z"/>
		<path fill="#025C01" d="M-11.401-107.499c-17.482,0-31.705,14.224-31.705,31.705c0,17.482,14.223,31.706,31.705,31.706
			s31.705-14.224,31.705-31.706C20.304-93.275,6.081-107.499-11.401-107.499z"/>
		<g>
			<path fill="#009900" d="M3.352-26.148c-5.069,0-9.966-0.473-14.431-0.899c-4.468-0.434-9.406-0.946-14.56-2.32
				c0,1.547,0.129,6.768,0.129,7.925c0,1.159,0,7.622,0,10.114c0,7.215,1.095,14.087,3.285,20.615
				c2.19,6.527,5.862,12.583,11.017,18.167c0.516,0.343,3.241,3.648,4.059,4.51c0.815,0.858,7.837,7.581,8.955,9.085
				c1.115,1.501,2.081,3.047,2.898,4.638c0.815,1.59,1.354,3.224,1.61,4.896c0.258,1.674,0.387,3.627,0.387,5.861
				c0,1.976-0.344,3.801-1.03,5.476c-0.688,1.675-1.697,3.135-3.028,4.382c-1.333,1.243-2.963,2.254-4.896,3.027
				c-1.934,0.771-4.146,1.16-6.636,1.16c-5.069,0-9.857-1.418-14.366-4.253c-4.51-2.834-8.697-7.859-12.563-15.075
				c-0.859,2.835-4.812,16.664-5.927,20.356c-1.117,3.691-5.756,16.576-6.957,18.556c4.207,3.264,8.288,6.098,12.24,8.504
				c3.95,2.404,7.901,4.294,11.854,5.669c3.95,1.374,8.096,2.427,12.434,3.157c4.337,0.729,9.04,1.096,14.109,1.096
				c7.73,0,14.537-1.141,20.422-3.415c5.883-2.276,10.778-5.306,14.688-9.084c3.907-3.78,6.829-8.053,8.762-12.819
				c1.933-4.769,2.898-9.687,2.898-14.753c0-5.499-0.624-10.396-1.868-14.688c-1.246-4.297-2.834-8.162-4.767-11.599
				c-1.934-3.437-4.232-6.484-6.894-9.146c-2.664-2.663-5.283-4.94-7.859-6.828c-1.805-1.205-9.708-7.303-11.081-8.763
				c-5.327-4.38-9.042-8.59-11.146-12.626c-2.105-4.039-3.156-8.505-3.156-13.4c0-2.147,0.3-8.612,0.386-9.856
				C2.405-19.729,3.007-24.689,3.352-26.148z"/>
			<path fill="#009900" d="M14.304-70.794c0,14.196-11.509,25.706-25.705,25.706c-14.196,0-25.705-11.51-25.705-25.706
				s11.509-25.705,25.705-25.705C2.795-96.499,14.304-84.99,14.304-70.794z"/>
		</g>
	</g>
</symbol>
<symbol  id="q3_3" viewBox="-78.02 -110.997 156.039 221.995">
	<g>
		<path fill="#003300" d="M8.812-54.86c-0.729,0-1.462,0.066-2.191,0.202c-3.665,0.683-6.807,3.026-8.5,6.351
			c-0.396,0.774-1.263,2.559-2.066,4.212c-0.618,1.271-1.192,2.458-1.421,2.903l-4.593,9c-3.855,7.559-6.42,15.479-7.624,23.544
			c-1.263,8.466-0.634,17.278,1.87,26.202c0.097,0.346,0.208,0.686,0.335,1.02c0.151,0.555,0.419,1.647,0.573,2.276
			c0.31,1.268,0.51,2.075,0.708,2.743c0.104,0.354,0.462,1.438,0.938,2.855c0.621,1.848,2.234,6.652,2.617,8.123
			c0.176,1.106,0.266,2.194,0.269,3.252c0.001,0.483-0.058,0.905-0.182,1.276c-0.342,1.033-0.886,2.283-1.619,3.724
			c-0.124,0.242-0.318,0.571-0.542,0.765c-0.047,0.04-0.076,0.062-0.188,0.092c-0.177,0.053-0.444,0.08-0.756,0.08
			c-0.177,0-0.367-0.009-0.568-0.026c-0.295-0.026-0.968-0.157-2.073-0.724c-2.483-1.267-4.45-3.153-6.013-5.773
			c-1.122-1.885-2.494-5.709-2.646-13.232c-0.098-4.85-3.105-9.163-7.622-10.933c-1.421-0.558-2.903-0.826-4.372-0.826
			c-3.202,0-6.341,1.282-8.646,3.678c-1.049,1.088-3.731,3.95-6.837,7.264c-2.989,3.188-6.377,6.803-7.709,8.189
			c-2.426,2.524-10.611,10.146-12.617,11.683c-4.934,3.278-6.752,9.697-4.216,15.097c2.443,5.198,5.026,10.021,7.68,14.328
			c2.862,4.643,6.069,8.828,9.535,12.444c3.345,3.488,7.095,6.782,11.147,9.794c4.068,3.019,8.699,5.855,13.772,8.444
			c8.177,4.172,16.239,6.69,23.966,7.488c2.214,0.228,4.412,0.344,6.536,0.344c5.408,0,10.594-0.746,15.413-2.218
			c6.797-2.082,12.844-5.396,17.983-9.846c5.045-4.367,9.121-9.563,12.121-15.438c2.996-5.873,5.051-11.633,6.105-17.119
			c1.016-5.283,1.428-10.415,1.23-15.254c-0.201-5.001-1.063-9.879-2.557-14.491c-1.348-4.158-2.895-7.978-4.596-11.354
			c-0.078-0.154-0.16-0.31-0.244-0.458c-0.807-1.454-4.227-8.713-4.904-10.562c-0.129-0.413-0.281-0.817-0.453-1.216
			c-2.607-5.983-3.174-9.625-3.191-11.627c-0.023-2.615,0.621-5.17,1.969-7.811c0.785-1.541,3.807-6.857,4.418-7.875
			c0.512-0.842,2.703-4.069,3.334-4.859c2.371-2.797,3.301-6.486,2.58-10.081c-0.721-3.595-3.076-6.626-6.342-8.292
			c-3.975-2.027-7.738-4.428-11.377-6.748c-3.859-2.462-7.256-4.695-10.414-7.533C14.611-53.781,11.748-54.86,8.812-54.86z"/>
		<path fill="#003300" d="M40.341-110.997c-14.254,0-27.132,7.883-33.607,20.572c-4.578,8.972-5.388,19.188-2.281,28.77
			c3.107,9.58,9.759,17.377,18.73,21.954c5.287,2.698,11.207,4.125,17.115,4.125c14.254,0,27.131-7.882,33.607-20.571
			c9.449-18.521,2.068-41.273-16.449-50.725C52.167-109.571,46.25-110.997,40.341-110.997L40.341-110.997z"/>
		<path fill="#025C01" d="M8.812-47.86c-0.364,0-0.73,0.033-1.096,0.104c-1.833,0.34-3.403,1.514-4.25,3.174
			c-0.386,0.758-1.231,2.496-2.016,4.109c-0.64,1.314-1.235,2.545-1.472,3.008l-4.596,9.005c-3.559,6.976-5.925,14.275-7.033,21.7
			c-1.137,7.62-0.56,15.592,1.713,23.693c0.068,0.242,0.151,0.479,0.248,0.71c0.164,0.542,0.516,1.98,0.711,2.779
			c0.254,1.037,0.491,1.985,0.633,2.462c0.099,0.333,0.433,1.337,0.875,2.654c0.703,2.093,2.57,7.654,2.816,8.85
			c0.245,1.45,0.376,2.952,0.381,4.416c0.003,1.146-0.156,2.189-0.486,3.188c-0.436,1.315-1.098,2.851-1.97,4.561
			c-0.544,1.065-1.189,1.911-1.975,2.586c-0.714,0.612-1.514,1.043-2.438,1.312c-0.726,0.207-1.542,0.313-2.418,0.313
			c-0.357,0-0.731-0.018-1.112-0.052c-1.297-0.119-2.73-0.574-4.256-1.353c-3.52-1.798-6.28-4.431-8.438-8.049
			c-2.174-3.646-3.35-9.092-3.492-16.186c-0.049-2.425-1.553-4.581-3.812-5.466c-0.71-0.278-1.452-0.413-2.187-0.413
			c-1.601-0.001-3.17,0.641-4.323,1.839c-1,1.039-3.824,4.051-6.78,7.204c-3.147,3.354-6.401,6.828-7.759,8.242
			c-2.774,2.887-11.873,11.326-13.526,12.463c-2.594,1.602-3.5,4.849-2.204,7.606c2.348,4.996,4.823,9.616,7.358,13.732
			c2.639,4.28,5.585,8.13,8.759,11.442c3.111,3.243,6.608,6.313,10.394,9.128c3.797,2.813,8.143,5.478,12.921,7.917
			c7.515,3.834,14.867,6.143,21.854,6.862c2.009,0.207,4,0.313,5.92,0.313c4.813,0,9.41-0.658,13.661-1.957
			c5.987-1.834,11.303-4.74,15.807-8.64c4.457-3.86,8.059-8.447,10.703-13.634c2.74-5.37,4.609-10.595,5.559-15.524
			c0.928-4.828,1.307-9.496,1.129-13.874c-0.182-4.459-0.945-8.795-2.27-12.89c-1.254-3.864-2.684-7.397-4.248-10.504
			c-0.039-0.077-0.08-0.152-0.121-0.229c-1.051-1.878-4.883-10.089-5.371-11.618c-0.072-0.245-0.15-0.455-0.252-0.688
			c-2.416-5.547-3.659-10.246-3.689-13.97c-0.031-3.604,0.826-7.067,2.623-10.59c0.895-1.751,4.055-7.297,4.623-8.24
			c0.578-0.967,3.188-4.809,3.836-5.57c1.186-1.398,1.666-3.264,1.305-5.061c-0.359-1.798-1.521-3.332-3.154-4.165
			c-4.232-2.159-8.117-4.637-11.875-7.032c-3.941-2.516-7.707-4.99-11.2-8.132C11.711-47.32,10.278-47.86,8.812-47.86z"/>
		<path fill="#025C01" d="M40.341-103.997c-11.988,0-22.818,6.629-28.263,17.301c-3.849,7.543-4.529,16.135-1.917,24.189
			c2.612,8.057,8.206,14.612,15.749,18.461c4.447,2.27,9.424,3.47,14.389,3.47c11.988,0,22.816-6.628,28.264-17.3
			c7.945-15.573,1.74-34.707-13.832-42.652C50.282-102.798,45.307-103.997,40.341-103.997L40.341-103.997z"/>
		<g>
			<path fill="#009900" d="M33.167-20.814c-4.514-2.305-8.66-4.949-12.443-7.361c-3.783-2.414-7.947-5.117-11.914-8.686
				c-0.702,1.378-2.961,6.084-3.487,7.117c-0.527,1.033-3.464,6.79-4.598,9.01C-2.554-14.307-4.7-7.689-5.716-0.877
				c-1.016,6.81-0.497,13.872,1.556,21.188c0.304,0.538,1.228,4.726,1.565,5.86c0.336,1.135,3.536,10.313,3.847,12.162
				c0.313,1.844,0.469,3.661,0.475,5.448c0.005,1.785-0.258,3.482-0.791,5.093c-0.532,1.61-1.305,3.407-2.32,5.398
				c-0.897,1.759-2.034,3.229-3.406,4.407c-1.375,1.181-2.938,2.021-4.689,2.525c-1.753,0.503-3.663,0.662-5.736,0.473
				c-2.074-0.188-4.22-0.852-6.438-1.98c-4.516-2.305-8.137-5.744-10.865-10.318c-2.728-4.575-4.173-10.953-4.338-19.138
				c-2.055,2.134-11.86,12.656-14.532,15.438c-2.673,2.781-12.662,12.149-14.629,13.365c2.264,4.818,4.61,9.198,7.036,13.137
				c2.427,3.938,5.087,7.416,7.982,10.438c2.895,3.019,6.109,5.84,9.64,8.464c3.532,2.618,7.555,5.084,12.07,7.389
				c6.887,3.515,13.467,5.593,19.743,6.239c6.275,0.646,12.012,0.173,17.213-1.415c5.197-1.592,9.743-4.068,13.631-7.438
				c3.889-3.367,6.984-7.312,9.287-11.823c2.498-4.897,4.166-9.543,5.012-13.934c0.844-4.395,1.186-8.559,1.023-12.494
				c-0.158-3.941-0.822-7.703-1.982-11.283c-1.162-3.583-2.459-6.802-3.896-9.654c-1.059-1.893-5.328-10.916-5.887-12.841
				c-2.754-6.323-4.15-11.762-4.189-16.313c-0.039-4.553,1.053-9.008,3.279-13.368c0.977-1.913,4.182-7.535,4.824-8.604
				C29.409-15.525,32.2-19.67,33.167-20.814z"/>
			<path fill="#009900" d="M63.219-55.603C56.764-42.958,41.28-37.938,28.637-44.39c-12.645-6.453-17.666-21.938-11.213-34.58
				c6.453-12.646,21.934-17.666,34.58-11.214C64.648-83.731,69.669-68.249,63.219-55.603z"/>
		</g>
	</g>
</symbol>
<symbol  id="q4_3" viewBox="-67.989 -112.407 135.977 224.814">
	<g>
		<path fill="#003300" d="M-7.283-45.684c-0.762,0-1.527,0.07-2.288,0.22c-4.375,0.851-8.811,1.278-13.101,1.69l-0.102,0.012
			c-3.184,0.306-6.307,0.581-9.466,0.581c-1.153,0-2.231-0.036-3.296-0.109c-0.274-0.019-0.549-0.027-0.822-0.027
			c-3.427,0-6.705,1.469-8.991,4.055c-2.469,2.794-3.498,6.576-2.787,10.233c0.165,0.854,0.577,2.778,0.962,4.571
			c0.298,1.387,0.578,2.685,0.675,3.178l1.929,9.933c1.618,8.328,4.476,16.146,8.496,23.239
			c4.222,7.446,10.147,14.005,17.615,19.488c0.288,0.212,0.585,0.41,0.891,0.595c0.463,0.348,1.351,1.047,1.861,1.446
			c1.02,0.803,1.673,1.315,2.237,1.717c0.308,0.222,1.254,0.852,2.5,1.675c1.628,1.072,5.864,3.866,7.073,4.791
			c0.813,0.759,1.557,1.563,2.207,2.39c0.303,0.385,0.517,0.756,0.651,1.132c0.25,0.698,0.629,1.944,1.012,3.915
			c0.053,0.272,0.103,0.651,0.046,0.937c-0.013,0.063-0.021,0.098-0.091,0.191c-0.178,0.244-0.538,0.553-1.007,0.854
			c-0.257,0.166-0.864,0.476-2.08,0.713c-0.906,0.175-1.815,0.264-2.705,0.264c-1.832,0-3.66-0.362-5.591-1.109
			c-2.046-0.792-5.483-2.961-10.235-8.792c-2.316-2.843-5.756-4.421-9.304-4.421c-1.146,0-2.302,0.164-3.437,0.504
			c-4.647,1.392-8.002,5.441-8.499,10.269c-0.148,1.438-0.518,5.543-0.904,9.854c-0.393,4.386-0.838,9.354-1.034,11.276
			c-0.356,3.487-2.108,14.528-2.74,16.97c-1.871,5.623,0.65,11.803,5.975,14.493c5.124,2.591,10.131,4.797,14.881,6.557
			c5.111,1.896,10.217,3.219,15.176,3.933c4.047,0.582,8.241,0.876,12.472,0.876c0.779,0,1.561-0.01,2.347-0.03
			c5.057-0.128,10.454-0.744,16.048-1.831c9.006-1.749,16.909-4.729,23.489-8.863c6.681-4.197,12.108-9.243,16.136-15
			c4.071-5.824,6.796-12.158,8.102-18.832c1.281-6.546,1.294-13.147,0.036-19.626c-1.26-6.479-3.189-12.283-5.737-17.253
			c-2.458-4.787-5.292-9.083-8.425-12.769c-3.247-3.822-6.93-7.134-10.943-9.843c-3.62-2.441-7.189-4.497-10.611-6.11
			c-0.159-0.075-0.32-0.146-0.483-0.216c-1.526-0.646-8.688-4.254-10.362-5.292c-0.356-0.246-0.726-0.475-1.106-0.679
			c-5.739-3.107-8.429-5.627-9.675-7.191c-1.63-2.047-2.697-4.456-3.262-7.366c-0.325-1.67-1.224-7.741-1.372-8.937
			c-0.113-0.955-0.372-4.792-0.365-5.838c0.124-3.641-1.41-7.141-4.175-9.514C-1.659-44.672-4.439-45.684-7.283-45.684z"/>
		<path fill="#003300" d="M-30.252-112.407c-2.409,0-4.838,0.234-7.218,0.697c-20.409,3.965-33.787,23.795-29.823,44.203
			c3.436,17.685,18.99,30.52,36.985,30.52c2.409,0,4.838-0.232,7.219-0.694c20.408-3.966,33.787-23.795,29.823-44.204
			C3.299-99.57-12.257-112.407-30.252-112.407C-30.253-112.407-30.251-112.407-30.252-112.407z"/>
		<path fill="#025C01" d="M-7.283-38.684c-0.381,0-0.764,0.035-1.145,0.108c-4.656,0.904-9.237,1.348-13.668,1.773l-0.102,0.01
			c-3.337,0.32-6.617,0.609-10.042,0.609c-1.274,0-2.521-0.042-3.706-0.123c-0.138-0.011-0.275-0.016-0.412-0.016
			c-1.713,0-3.353,0.732-4.495,2.026c-1.234,1.396-1.749,3.288-1.394,5.117c0.161,0.831,0.563,2.708,0.938,4.455
			c0.31,1.438,0.599,2.783,0.698,3.297l1.929,9.93C-37.188-3.808-34.555,3.4-30.856,9.93c3.802,6.704,9.167,12.63,15.948,17.611
			c0.202,0.147,0.413,0.283,0.632,0.405c0.464,0.328,1.631,1.246,2.279,1.757c0.835,0.658,1.602,1.256,2.005,1.543
			c0.286,0.204,1.167,0.788,2.324,1.552c1.846,1.219,6.749,4.452,7.678,5.24c1.086,0.992,2.115,2.096,3.015,3.239
			c0.709,0.899,1.227,1.822,1.583,2.813c0.467,1.305,0.89,2.917,1.255,4.8c0.229,1.179,0.241,2.24,0.039,3.255
			c-0.186,0.925-0.551,1.756-1.114,2.533c-0.626,0.861-1.509,1.665-2.617,2.381c-1.099,0.707-2.507,1.229-4.187,1.558
			c-1.281,0.249-2.576,0.375-3.849,0.375c-2.55,0-5.159-0.509-7.756-1.515c-3.961-1.532-8.241-5.1-12.722-10.599
			c-1.158-1.422-2.878-2.211-4.652-2.211c-0.572,0-1.15,0.083-1.718,0.253c-2.324,0.694-4.001,2.721-4.25,5.133
			c-0.146,1.429-0.512,5.497-0.896,9.773c-0.414,4.616-0.842,9.389-1.041,11.35c-0.408,3.988-2.377,16.24-2.979,18.146
			c-1.058,2.86,0.228,5.979,2.949,7.354c4.924,2.489,9.722,4.604,14.26,6.285c4.714,1.747,9.406,2.964,13.946,3.618
			c3.763,0.541,7.67,0.813,11.616,0.813c0.729,0,1.461-0.011,2.196-0.026c4.722-0.121,9.786-0.7,15.054-1.726
			c8.277-1.606,15.492-4.316,21.442-8.056c5.997-3.769,10.846-8.263,14.412-13.356c3.586-5.135,5.984-10.698,7.129-16.545
			c1.132-5.783,1.144-11.613,0.033-17.33c-1.151-5.927-2.896-11.191-5.186-15.657c-2.247-4.376-4.823-8.286-7.657-11.622
			c-2.895-3.405-6.167-6.352-9.728-8.753c-3.367-2.271-6.669-4.175-9.814-5.658c-0.08-0.037-0.161-0.074-0.242-0.106
			c-1.979-0.826-10.053-4.932-11.385-5.839c-0.207-0.147-0.398-0.267-0.623-0.389C11.205-0.548,7.332-3.485,5.015-6.397
			c-2.246-2.819-3.704-6.076-4.458-9.959C0.179-18.299-0.738-24.56-0.88-25.7c-0.139-1.116-0.448-5.749-0.408-6.742
			c0.074-1.833-0.694-3.599-2.086-4.794C-4.472-38.178-5.861-38.684-7.283-38.684z"/>
		<path fill="#025C01" d="M-30.252-105.407c-2.026,0-4.07,0.197-6.074,0.587c-17.16,3.335-28.41,20.011-25.076,37.169
			c2.889,14.871,15.966,25.664,31.095,25.664c2.026,0,4.07-0.195,6.074-0.586c17.161-3.334,28.411-20.008,25.077-37.17
			C-2.044-94.612-15.123-105.407-30.252-105.407C-30.252-105.407-30.251-105.407-30.252-105.407z"/>
		<g>
			<path fill="#009900" d="M-7.283-27.684c-4.977,0.967-9.874,1.436-14.338,1.864c-4.468,0.432-9.414,0.865-14.735,0.5
				c0.295,1.52,1.417,6.615,1.638,7.755c0.222,1.14,1.454,7.481,1.929,9.93c1.376,7.083,3.762,13.62,7.156,19.608
				c3.396,5.99,8.154,11.233,14.279,15.733c0.571,0.237,3.878,2.965,4.844,3.652c0.964,0.688,9.139,5.945,10.523,7.21
				c1.381,1.261,2.624,2.595,3.729,4c1.104,1.402,1.942,2.902,2.515,4.499c0.572,1.596,1.071,3.486,1.497,5.683
				c0.377,1.938,0.388,3.796,0.033,5.571c-0.356,1.773-1.068,3.398-2.138,4.878c-1.071,1.477-2.479,2.779-4.229,3.906
				c-1.75,1.129-3.848,1.93-6.292,2.402c-4.977,0.968-9.947,0.488-14.914-1.434c-4.968-1.924-10.036-6.059-15.207-12.403
				c-0.304,2.946-1.546,17.275-1.937,21.115c-0.393,3.836-2.488,17.369-3.291,19.539c4.752,2.401,9.299,4.406,13.638,6.014
				c4.336,1.606,8.575,2.709,12.717,3.308c4.14,0.594,8.41,0.837,12.808,0.727c4.396-0.111,9.083-0.646,14.059-1.614
				c7.589-1.475,14.054-3.892,19.396-7.246c5.341-3.355,9.568-7.264,12.687-11.719c3.114-4.456,5.168-9.208,6.156-14.256
				c0.988-5.049,0.998-10.062,0.032-15.035c-1.049-5.396-2.595-10.085-4.635-14.063c-2.043-3.979-4.339-7.474-6.891-10.476
				c-2.554-3.006-5.392-5.562-8.512-7.666c-3.123-2.105-6.129-3.843-9.018-5.205c-2.001-0.838-10.922-5.315-12.548-6.485
				C7.604,9.325,3.155,5.901,0.32,2.34C-2.517-1.223-4.4-5.405-5.333-10.212c-0.41-2.109-1.348-8.512-1.501-9.75
				C-6.988-21.201-7.344-26.185-7.283-27.684z"/>
			<path fill="#009900" d="M-5.046-73.599c2.707,13.936-6.396,27.428-20.332,30.135c-13.936,2.708-27.428-6.396-30.135-20.331
				s6.396-27.428,20.331-30.136C-21.245-96.638-7.753-87.534-5.046-73.599z"/>
		</g>
	</g>
</symbol>
<symbol  id="q5" viewBox="-82.542 -107.481 165.084 214.962">
	<g opacity="0.2">
		<path fill="#003300" d="M-12.985-47.135c-1.702,0-3.408,0.36-5.002,1.079c-4.063,1.829-8.283,3.262-12.364,4.646l-0.098,0.033
			c-4.26,1.443-8.131,2.695-12.314,3.382c-3.679,0.604-6.868,2.881-8.631,6.165c-1.764,3.284-1.9,7.201-0.371,10.602
			c0.356,0.794,1.199,2.572,1.984,4.229c0.607,1.281,1.178,2.479,1.384,2.938c0.481,1.065,3.13,6.951,4.15,9.223
			c3.483,7.74,8.056,14.696,13.594,20.682c5.813,6.28,13.082,11.308,21.609,14.938c0.328,0.14,0.662,0.265,1.001,0.375
			c0.528,0.229,1.552,0.706,2.14,0.979c1.18,0.549,1.937,0.899,2.58,1.162c0.343,0.143,1.415,0.541,2.824,1.061
			c1.829,0.672,6.585,2.42,7.972,3.04c0.964,0.552,1.872,1.162,2.693,1.817c0.384,0.309,0.678,0.62,0.896,0.957
			c0.584,0.9,1.218,2.106,1.88,3.578c0.113,0.251,0.249,0.609,0.259,0.9c0.002,0.063-0.001,0.1-0.044,0.202
			c-0.118,0.28-0.398,0.663-0.785,1.063c-0.213,0.221-0.733,0.662-1.862,1.17c-1.868,0.841-3.785,1.249-5.86,1.249
			c-0.774,0-1.585-0.058-2.409-0.173c-2.173-0.302-6.015-1.626-11.976-6.215c-2.146-1.651-4.728-2.491-7.322-2.491
			c-2.055,0-4.117,0.526-5.977,1.596c-4.206,2.416-6.543,7.128-5.923,11.939c0.185,1.428,0.761,5.479,1.369,9.748
			c0.624,4.377,1.331,9.339,1.582,11.264c0.452,3.479,1.274,14.625,1.218,17.15c-0.533,5.898,3.336,11.338,9.135,12.736
			c5.582,1.351,10.961,2.352,15.987,2.978c3.271,0.407,6.51,0.612,9.628,0.612c2.038,0,4.071-0.09,6.043-0.263
			c4.821-0.428,9.737-1.292,14.62-2.567c4.888-1.282,10.001-3.117,15.201-5.458c8.366-3.767,15.376-8.479,20.836-14.007
			c5.542-5.616,9.67-11.771,12.273-18.296c2.629-6.604,3.83-13.393,3.574-20.187c-0.25-6.664-1.751-13.096-4.459-19.114
			c-2.709-6.02-5.917-11.228-9.535-15.479c-3.49-4.103-7.231-7.634-11.123-10.501c-4.04-2.979-8.382-5.359-12.907-7.076
			c-4.082-1.547-8.027-2.73-11.727-3.521c-0.174-0.037-0.348-0.068-0.521-0.099c-1.635-0.281-9.431-2.152-11.299-2.779
			c-0.403-0.158-0.814-0.294-1.232-0.408c-6.3-1.712-9.494-3.546-11.065-4.782c-2.056-1.62-3.646-3.723-4.861-6.423
			c-0.7-1.559-2.965-7.261-3.382-8.388c-0.332-0.915-1.478-4.639-1.697-5.623c-0.695-3.602-2.989-6.64-6.246-8.329
			C-9.25-46.697-11.117-47.135-12.985-47.135z"/>
		<path fill="#003300" d="M-44.854-107.481c-5.353,0-10.553,1.119-15.459,3.327c-18.958,8.532-27.44,30.899-18.909,49.857
			c6.08,13.509,19.582,22.237,34.398,22.237c5.352,0,10.553-1.119,15.459-3.327c18.958-8.532,27.441-30.898,18.911-49.857
			c-6.08-13.509-19.582-22.237-34.397-22.237C-44.854-107.481-44.854-107.481-44.854-107.481z"/>
		<path fill="#025C01" d="M-13.063-40.112c-0.839,0-1.678,0.178-2.462,0.528c-4.326,1.946-8.685,3.426-12.899,4.856l-0.098,0.031
			c-4.519,1.531-8.638,2.86-13.271,3.621c-1.839,0.301-3.434,1.439-4.315,3.082c-0.882,1.644-0.95,3.604-0.186,5.301
			c0.348,0.772,1.169,2.508,1.935,4.121c0.63,1.33,1.221,2.573,1.435,3.053c0.479,1.063,3.13,6.948,4.15,9.223
			c3.215,7.144,7.429,13.558,12.525,19.063c5.233,5.655,11.813,10.194,19.556,13.492c0.23,0.1,0.467,0.184,0.707,0.25
			c0.526,0.212,1.87,0.838,2.616,1.188c0.968,0.45,1.854,0.856,2.313,1.046c0.323,0.132,1.32,0.502,2.629,0.98
			c2.073,0.764,7.579,2.785,8.662,3.341c1.283,0.718,2.537,1.556,3.675,2.463c0.896,0.716,1.612,1.492,2.187,2.38
			c0.752,1.158,1.532,2.634,2.319,4.383c0.492,1.094,0.749,2.126,0.784,3.158c0.03,0.939-0.135,1.835-0.505,2.721
			c-0.413,0.984-1.088,1.968-2.004,2.917c-0.906,0.941-2.157,1.772-3.718,2.476c-2.658,1.195-5.381,1.777-8.322,1.777
			c-1.05,0-2.139-0.077-3.235-0.229c-4.206-0.585-9.188-3.076-14.81-7.402c-1.072-0.826-2.364-1.246-3.661-1.246
			c-1.027,0-2.059,0.264-2.988,0.797c-2.103,1.209-3.271,3.564-2.962,5.972c0.184,1.417,0.756,5.438,1.359,9.67
			c0.656,4.606,1.336,9.374,1.591,11.336c0.517,3.975,1.405,16.35,1.257,18.349c-0.374,3.026,1.591,5.767,4.556,6.483
			c5.362,1.294,10.517,2.255,15.319,2.853c3.025,0.377,6.016,0.566,8.887,0.566c1.863,0,3.719-0.08,5.517-0.238
			c4.484-0.396,9.068-1.204,13.627-2.396c4.565-1.194,9.361-2.921,14.258-5.123c7.689-3.461,14.092-7.752,19.029-12.752
			c4.975-5.042,8.665-10.525,10.97-16.304c2.316-5.816,3.376-11.783,3.152-17.735c-0.222-5.89-1.546-11.566-3.936-16.879
			c-2.478-5.504-5.382-10.23-8.633-14.054c-3.191-3.748-6.594-6.964-10.114-9.561c-3.603-2.658-7.462-4.775-11.477-6.298
			C38.56-0.292,34.91-1.389,31.507-2.114c-0.086-0.018-0.173-0.035-0.261-0.049C29.13-2.517,20.332-4.664,18.828-5.242
			c-0.236-0.098-0.449-0.169-0.696-0.234C12.292-7.063,7.85-9.037,4.925-11.339c-2.832-2.231-4.997-5.068-6.619-8.674
			c-0.815-1.813-3.141-7.691-3.537-8.769c-0.392-1.053-1.752-5.486-1.941-6.469c-0.348-1.802-1.5-3.344-3.128-4.189
			C-11.166-39.887-12.112-40.112-13.063-40.112z"/>
		<path fill="#025C01" d="M-44.854-100.481c-4.497,0-8.87,0.942-12.996,2.801c-15.942,7.175-23.074,25.979-15.9,41.924
			c5.112,11.358,16.467,18.699,28.927,18.699c4.497,0,8.869-0.941,12.997-2.801c15.941-7.175,23.075-25.979,15.901-41.923
			c-5.112-11.358-16.467-18.7-28.926-18.7C-44.854-100.481-44.854-100.481-44.854-100.481z"/>
		<g>
			<path fill="#009900" d="M-13.063-29.112c-4.623,2.081-9.283,3.658-13.53,5.102c-4.251,1.438-8.966,2.997-14.229,3.858
				c0.635,1.41,2.895,6.115,3.37,7.174c0.477,1.059,3.129,6.949,4.15,9.225c2.961,6.579,6.78,12.396,11.457,17.451
				c4.676,5.053,10.51,9.065,17.502,12.045c0.61,0.101,4.454,2,5.552,2.446c1.095,0.447,10.257,3.695,11.895,4.607
				c1.633,0.911,3.148,1.926,4.546,3.04c1.396,1.114,2.556,2.383,3.479,3.805c0.922,1.421,1.841,3.149,2.758,5.188
				c0.811,1.801,1.247,3.604,1.309,5.416c0.059,1.81-0.262,3.555-0.965,5.238c-0.705,1.681-1.776,3.271-3.222,4.77
				c-1.445,1.499-3.304,2.76-5.574,3.78c-4.623,2.081-9.571,2.754-14.847,2.02c-5.276-0.732-11.156-3.599-17.643-8.592
				c0.379,2.938,2.451,17.17,2.949,20.997c0.497,3.825,1.555,17.479,1.271,19.774c5.176,1.25,10.061,2.157,14.652,2.729
				c4.589,0.57,8.968,0.673,13.136,0.306c4.166-0.367,8.379-1.109,12.634-2.225s8.693-2.711,13.315-4.791
				c7.05-3.173,12.789-7.006,17.223-11.495c4.43-4.49,7.65-9.261,9.666-14.312c2.011-5.054,2.922-10.146,2.729-15.286
				c-0.193-5.143-1.332-10.022-3.411-14.646c-2.257-5.014-4.835-9.223-7.731-12.627c-2.9-3.405-5.935-6.279-9.105-8.619
				c-3.175-2.341-6.521-4.179-10.041-5.514c-3.522-1.335-6.846-2.337-9.97-3.002c-2.14-0.356-11.85-2.674-13.7-3.442
				C9.901,3.505,4.788,1.19,1.211-1.628c-3.577-2.818-6.368-6.458-8.377-10.923c-0.882-1.96-3.261-7.979-3.693-9.147
				C-11.292-22.869-12.778-27.64-13.063-29.112z"/>
			<path fill="#009900" d="M-21.397-74.319c5.825,12.945,0.053,28.164-12.893,33.989c-12.945,5.826-28.163,0.055-33.989-12.892
				c-5.826-12.947-0.055-28.163,12.891-33.989C-42.442-93.037-27.226-87.266-21.397-74.319z"/>
		</g>
	</g>
</symbol>
<symbol  id="q5_3" viewBox="-82.542 -107.481 165.084 214.962">
	<g>
		<path fill="#003300" d="M-12.985-47.135c-1.702,0-3.408,0.36-5.002,1.079c-4.063,1.829-8.283,3.262-12.364,4.646l-0.098,0.033
			c-4.26,1.443-8.131,2.695-12.314,3.382c-3.679,0.604-6.868,2.881-8.631,6.165c-1.764,3.284-1.9,7.201-0.371,10.602
			c0.356,0.794,1.199,2.572,1.984,4.229c0.607,1.281,1.178,2.479,1.384,2.938c0.481,1.065,3.13,6.951,4.15,9.223
			c3.483,7.74,8.056,14.696,13.594,20.682c5.813,6.28,13.082,11.308,21.609,14.938c0.328,0.14,0.662,0.265,1.001,0.375
			c0.528,0.229,1.552,0.706,2.14,0.979c1.18,0.549,1.937,0.899,2.58,1.162c0.343,0.143,1.415,0.541,2.824,1.061
			c1.829,0.672,6.585,2.42,7.972,3.04c0.964,0.552,1.872,1.162,2.693,1.817c0.384,0.309,0.678,0.62,0.896,0.957
			c0.584,0.9,1.218,2.106,1.88,3.578c0.113,0.251,0.249,0.609,0.259,0.9c0.002,0.063-0.001,0.1-0.044,0.202
			c-0.118,0.28-0.398,0.663-0.785,1.063c-0.213,0.221-0.733,0.662-1.862,1.17c-1.868,0.841-3.785,1.249-5.86,1.249
			c-0.774,0-1.585-0.058-2.409-0.173c-2.173-0.302-6.015-1.626-11.976-6.215c-2.146-1.651-4.728-2.491-7.322-2.491
			c-2.055,0-4.117,0.526-5.977,1.596c-4.206,2.416-6.543,7.128-5.923,11.939c0.185,1.428,0.761,5.479,1.369,9.748
			c0.624,4.377,1.331,9.339,1.582,11.264c0.452,3.479,1.274,14.625,1.218,17.15c-0.533,5.898,3.336,11.338,9.135,12.736
			c5.582,1.351,10.961,2.352,15.987,2.978c3.271,0.407,6.51,0.612,9.628,0.612c2.038,0,4.071-0.09,6.043-0.263
			c4.821-0.428,9.737-1.292,14.62-2.567c4.888-1.282,10.001-3.117,15.201-5.458c8.366-3.767,15.376-8.479,20.836-14.007
			c5.542-5.616,9.67-11.771,12.273-18.296c2.629-6.604,3.83-13.393,3.574-20.187c-0.25-6.664-1.751-13.096-4.459-19.114
			c-2.709-6.02-5.917-11.228-9.535-15.479c-3.49-4.103-7.231-7.634-11.123-10.501c-4.04-2.979-8.382-5.359-12.907-7.076
			c-4.082-1.547-8.027-2.73-11.727-3.521c-0.174-0.037-0.348-0.068-0.521-0.099c-1.635-0.281-9.431-2.152-11.299-2.779
			c-0.403-0.158-0.814-0.294-1.232-0.408c-6.3-1.712-9.494-3.546-11.065-4.782c-2.056-1.62-3.646-3.723-4.861-6.423
			c-0.7-1.559-2.965-7.261-3.382-8.388c-0.332-0.915-1.478-4.639-1.697-5.623c-0.695-3.602-2.989-6.64-6.246-8.329
			C-9.25-46.697-11.117-47.135-12.985-47.135z"/>
		<path fill="#003300" d="M-44.854-107.481c-5.353,0-10.553,1.119-15.459,3.327c-18.958,8.532-27.44,30.899-18.909,49.857
			c6.08,13.509,19.582,22.237,34.398,22.237c5.352,0,10.553-1.119,15.459-3.327c18.958-8.532,27.441-30.898,18.911-49.857
			c-6.08-13.509-19.582-22.237-34.397-22.237C-44.854-107.481-44.854-107.481-44.854-107.481z"/>
		<path fill="#025C01" d="M-13.063-40.112c-0.839,0-1.678,0.178-2.462,0.528c-4.326,1.946-8.685,3.426-12.899,4.856l-0.098,0.031
			c-4.519,1.531-8.638,2.86-13.271,3.621c-1.839,0.301-3.434,1.439-4.315,3.082c-0.882,1.644-0.95,3.604-0.186,5.301
			c0.348,0.772,1.169,2.508,1.935,4.121c0.63,1.33,1.221,2.573,1.435,3.053c0.479,1.063,3.13,6.948,4.15,9.223
			c3.215,7.144,7.429,13.558,12.525,19.063c5.233,5.655,11.813,10.194,19.556,13.492c0.23,0.1,0.467,0.184,0.707,0.25
			c0.526,0.212,1.87,0.838,2.616,1.188c0.968,0.45,1.854,0.856,2.313,1.046c0.323,0.132,1.32,0.502,2.629,0.98
			c2.073,0.764,7.579,2.785,8.662,3.341c1.283,0.718,2.537,1.556,3.675,2.463c0.896,0.716,1.612,1.492,2.187,2.38
			c0.752,1.158,1.532,2.634,2.319,4.383c0.492,1.094,0.749,2.126,0.784,3.158c0.03,0.939-0.135,1.835-0.505,2.721
			c-0.413,0.984-1.088,1.968-2.004,2.917c-0.906,0.941-2.157,1.772-3.718,2.476c-2.658,1.195-5.381,1.777-8.322,1.777
			c-1.05,0-2.139-0.077-3.235-0.229c-4.206-0.585-9.188-3.076-14.81-7.402c-1.072-0.826-2.364-1.246-3.661-1.246
			c-1.027,0-2.059,0.264-2.988,0.797c-2.103,1.209-3.271,3.564-2.962,5.972c0.184,1.417,0.756,5.438,1.359,9.67
			c0.656,4.606,1.336,9.374,1.591,11.336c0.517,3.975,1.405,16.35,1.257,18.349c-0.374,3.026,1.591,5.767,4.556,6.483
			c5.362,1.294,10.517,2.255,15.319,2.853c3.025,0.377,6.016,0.566,8.887,0.566c1.863,0,3.719-0.08,5.517-0.238
			c4.484-0.396,9.068-1.204,13.627-2.396c4.565-1.194,9.361-2.921,14.258-5.123c7.689-3.461,14.092-7.752,19.029-12.752
			c4.975-5.042,8.665-10.525,10.97-16.304c2.316-5.816,3.376-11.783,3.152-17.735c-0.222-5.89-1.546-11.566-3.936-16.879
			c-2.478-5.504-5.382-10.23-8.633-14.054c-3.191-3.748-6.594-6.964-10.114-9.561c-3.603-2.658-7.462-4.775-11.477-6.298
			C38.56-0.292,34.91-1.389,31.507-2.114c-0.086-0.018-0.173-0.035-0.261-0.049C29.13-2.517,20.332-4.664,18.828-5.242
			c-0.236-0.098-0.449-0.169-0.696-0.234C12.292-7.063,7.85-9.037,4.925-11.339c-2.832-2.231-4.997-5.068-6.619-8.674
			c-0.815-1.813-3.141-7.691-3.537-8.769c-0.392-1.053-1.752-5.486-1.941-6.469c-0.348-1.802-1.5-3.344-3.128-4.189
			C-11.166-39.887-12.112-40.112-13.063-40.112z"/>
		<path fill="#025C01" d="M-44.854-100.481c-4.497,0-8.87,0.942-12.996,2.801c-15.942,7.175-23.074,25.979-15.9,41.924
			c5.112,11.358,16.467,18.699,28.927,18.699c4.497,0,8.869-0.941,12.997-2.801c15.941-7.175,23.075-25.979,15.901-41.923
			c-5.112-11.358-16.467-18.7-28.926-18.7C-44.854-100.481-44.854-100.481-44.854-100.481z"/>
		<g>
			<path fill="#009900" d="M-13.063-29.112c-4.623,2.081-9.283,3.658-13.53,5.102c-4.251,1.438-8.966,2.997-14.229,3.858
				c0.635,1.41,2.895,6.115,3.37,7.174c0.477,1.059,3.129,6.949,4.15,9.225c2.961,6.579,6.78,12.396,11.457,17.451
				c4.676,5.053,10.51,9.065,17.502,12.045c0.61,0.101,4.454,2,5.552,2.446c1.095,0.447,10.257,3.695,11.895,4.607
				c1.633,0.911,3.148,1.926,4.546,3.04c1.396,1.114,2.556,2.383,3.479,3.805c0.922,1.421,1.841,3.149,2.758,5.188
				c0.811,1.801,1.247,3.604,1.309,5.416c0.059,1.81-0.262,3.555-0.965,5.238c-0.705,1.681-1.776,3.271-3.222,4.77
				c-1.445,1.499-3.304,2.76-5.574,3.78c-4.623,2.081-9.571,2.754-14.847,2.02c-5.276-0.732-11.156-3.599-17.643-8.592
				c0.379,2.938,2.451,17.17,2.949,20.997c0.497,3.825,1.555,17.479,1.271,19.774c5.176,1.25,10.061,2.157,14.652,2.729
				c4.589,0.57,8.968,0.673,13.136,0.306c4.166-0.367,8.379-1.109,12.634-2.225s8.693-2.711,13.315-4.791
				c7.05-3.173,12.789-7.006,17.223-11.495c4.43-4.49,7.65-9.261,9.666-14.312c2.011-5.054,2.922-10.146,2.729-15.286
				c-0.193-5.143-1.332-10.022-3.411-14.646c-2.257-5.014-4.835-9.223-7.731-12.627c-2.9-3.405-5.935-6.279-9.105-8.619
				c-3.175-2.341-6.521-4.179-10.041-5.514c-3.522-1.335-6.846-2.337-9.97-3.002c-2.14-0.356-11.85-2.674-13.7-3.442
				C9.901,3.505,4.788,1.19,1.211-1.628c-3.577-2.818-6.368-6.458-8.377-10.923c-0.882-1.96-3.261-7.979-3.693-9.147
				C-11.292-22.869-12.778-27.64-13.063-29.112z"/>
			<path fill="#009900" d="M-21.397-74.319c5.825,12.945,0.053,28.164-12.893,33.989c-12.945,5.826-28.163,0.055-33.989-12.892
				c-5.826-12.947-0.055-28.163,12.891-33.989C-42.442-93.037-27.226-87.266-21.397-74.319z"/>
		</g>
	</g>
</symbol>
<use xlink:href="#q5"  width="165.084" height="214.962" x="-82.542" y="-107.481" transform="matrix(1 0 0 -1 126.1816 260)" overflow="visible"/>
<g>
	<rect fill="#5D0E4A" width="1878.675" height="1080"/>
	<g>
		<g>
			<rect x="1867.382" fill="#961778" width="52.618" height="1080"/>
			<rect x="1695.814" fill="#961778" width="64.632" height="1080"/>
			<rect x="1591" fill="#961778" width="64.631" height="1080"/>
			<rect x="1460.563" fill="#961778" width="64.635" height="1080"/>
			<rect x="1325.467" fill="#961778" width="64.632" height="1080"/>
			<rect x="1185.712" fill="#961778" width="64.635" height="1080"/>
			<rect x="1086.721" fill="#961778" width="64.633" height="1080"/>
			<rect x="929.497" fill="#961778" width="64.632" height="1080"/>
			<rect x="801.39" fill="#961778" width="64.634" height="1080"/>
			<rect x="743.159" fill="#961778" width="64.632" height="1080"/>
			<rect x="615.05" fill="#961778" width="64.633" height="1080"/>
			<rect x="521.881" fill="#961778" width="64.632" height="1080"/>
			<rect x="475.297" fill="#961778" width="64.633" height="1080"/>
			<rect x="298.274" fill="#961778" width="64.633" height="1080"/>
			<rect x="174.825" fill="#961778" width="64.633" height="1080"/>
			<rect x="41.325" fill="#961778" width="64.632" height="1080"/>
		</g>
	</g>
	<g>
		<g>
			<rect fill="#DD22B1" width="63.053" height="1080"/>
			<rect x="147.701" fill="#DD22B1" width="63.053" height="1080"/>
			<rect x="261.317" fill="#DD22B1" width="63.053" height="1080"/>
			<rect x="379.478" fill="#DD22B1" width="63.056" height="1080"/>
			<rect x="511.273" fill="#DD22B1" width="63.054" height="1080"/>
			<rect x="647.612" fill="#DD22B1" width="63.053" height="1080"/>
			<rect x="749.867" fill="#DD22B1" width="63.053" height="1080"/>
			<rect x="874.844" fill="#DD22B1" width="63.057" height="1080"/>
			<rect x="988.46" fill="#DD22B1" width="63.054" height="1080"/>
			<rect x="1079.354" fill="#DD22B1" width="63.056" height="1080"/>
			<rect x="1204.331" fill="#DD22B1" width="63.052" height="1080"/>
			<rect x="1295.225" fill="#DD22B1" width="63.055" height="1080"/>
			<rect x="1397.479" fill="#DD22B1" width="63.055" height="1080"/>
			<rect x="1524.729" fill="#DD22B1" width="63.056" height="1080"/>
			<rect x="1645.161" fill="#DD22B1" width="63.054" height="1080"/>
			<rect x="1740.599" fill="#DD22B1" width="63.056" height="1080"/>
			<rect x="1846.076" fill="#DD22B1" width="32.599" height="1080"/>
		</g>
	</g>
</g>
<radialGradient id="SVGID_1_" cx="1373.7822" cy="251" r="871.5681" gradientTransform="matrix(1.1985 0 0 1 -686.4778 289)" gradientUnits="userSpaceOnUse">
	<stop  offset="0" style="stop-color:#1B1464;stop-opacity:0"/>
	<stop  offset="1" style="stop-color:#1B1464;stop-opacity:0.8"/>
</radialGradient>
<rect fill="url(#SVGID_1_)" width="1920" height="1080"/>
<g opacity="0.16">
	<circle fill="#FFFFFF" cx="379.061" cy="282.065" r="231.265"/>
	<path fill="#FFFFFF" d="M1737.641,522.292c-124.823,0-226.017,101.19-226.017,226.016c0,124.826,101.191,226.019,226.017,226.019
		c74.872,0,141.23-36.415,182.359-92.491V614.783C1878.871,558.707,1812.513,522.292,1737.641,522.292z"/>
	<path fill="#FFFFFF" d="M324.432,736.444c0-115.723-93.811-209.53-209.531-209.53c-42.43,0-81.906,12.625-114.9,34.304v350.453
		c32.995,21.679,72.47,34.304,114.9,34.304C230.621,945.975,324.432,852.165,324.432,736.444z"/>
	<path fill="#FFFFFF" d="M1650.421,436.179c119.388,0,222.314-70.402,269.579-171.945V13.706c-2.158-4.636-4.43-9.205-6.814-13.706
		H1387.66c-21.98,41.474-34.448,88.762-34.448,138.969C1353.212,303.115,1486.278,436.179,1650.421,436.179z"/>
	<polygon fill="#FFFFFF" points="1061,0 681,1080 1115,1080 1155,0 	"/>
	<polygon fill="#FFFFFF" points="1011,0 281,1080 575,1080 1035,0 	"/>
	<polygon fill="#FFFFFF" points="1191,0 1211,1080 1505,1080 1215,0 	"/>
</g>
<radialGradient id="SVGID_2_" cx="1373.7822" cy="251" r="956.6416" gradientTransform="matrix(1.1985 0 0 1 -686.4778 289)" gradientUnits="userSpaceOnUse">
	<stop  offset="0" style="stop-color:#1B1464;stop-opacity:0"/>
	<stop  offset="1" style="stop-color:#1B1464;stop-opacity:0.8"/>
</radialGradient>
<rect fill="url(#SVGID_2_)" width="1920" height="1080"/>
<g opacity="0.16">
	
		<use xlink:href="#q1_3"  width="121.408" height="228.998" id="XMLID_13_" x="-60.704" y="-114.499" transform="matrix(1.225 -0.2798 -0.2798 -1.225 1582.043 382.938)" overflow="visible"/>
	<g>
		<g>
			<path fill="#003300" d="M1167.354,1074.137c5.075-3.721,10.256-8.211,15.395-13.349c5.694-5.696,10.659-12.273,14.75-19.546
				c3.949-7.018,7.215-14.932,9.709-23.529c2.585-8.924,3.896-19.016,3.896-29.995c0-10.977-2.112-21.758-6.283-32.047
				c-4.252-10.481-10.709-19.963-19.207-28.185c-8.403-8.121-18.869-14.643-31.113-19.381c-12.059-4.66-25.911-7.023-41.178-7.023
				c-9.483,0-18.495,0.706-26.793,2.1c-8.278,1.396-16.329,3.44-23.934,6.085c-7.871,2.739-15.791,6.521-23.54,11.233
				c-7.192,4.379-14.67,9.57-22.223,15.429c-7.844,6.084-10,16.977-5.163,25.564c1.807,3.786,8.174,21.269,9.862,26.85
				c0.933,3.09,3.241,11.085,5.28,18.143c1.993,6.897,3.892,13.459,4.588,15.755c2.341,7.724,9.104,13.276,17.138,14.072
				c0.66,0.066,1.318,0.101,1.976,0.1c7.303,0,14.095-4.007,17.593-10.536c5.911-11.031,10.839-15.664,13.933-17.608
				c4.294-2.698,8.637-4.012,13.274-4.012c2.063,0,3.161,0.315,3.622,0.5c1.164,0.466,1.716,0.888,1.916,1.074
				c0.146,0.138,0.172,0.188,0.213,0.287c0.185,0.45,0.224,1.086,0.224,1.54c0,2.685-0.14,4.943-0.413,6.729
				c-0.101,0.65-0.331,1.322-0.702,2.046c-0.799,1.558-1.758,3.105-2.849,4.605c-1.684,1.891-7.715,7.799-10.032,10.068
				c-1.774,1.737-3.118,3.067-3.552,3.521c-0.793,0.837-1.7,1.882-3.112,3.518c-0.705,0.818-1.935,2.242-2.578,2.952
				c-0.439,0.397-0.862,0.816-1.267,1.253c-10.457,11.33-18.057,23.918-22.587,37.417c-0.025,0.077-0.047,0.157-0.072,0.234h105.384
				c3.068-2.384,6.037-4.624,7.128-5.358C1166.875,1074.479,1167.116,1074.311,1167.354,1074.137z"/>
			<path fill="#025C01" d="M1144.35,1077.826c1.89-1.905,13.771-11.171,16.741-13.152c0.122-0.082,0.242-0.166,0.361-0.253
				c4.668-3.421,9.456-7.577,14.232-12.354c5.056-5.057,9.466-10.902,13.109-17.385c3.572-6.349,6.54-13.552,8.819-21.411
				c2.323-8.021,3.503-17.18,3.503-27.218c0-9.686-1.868-19.205-5.556-28.297c-3.724-9.186-9.404-17.514-16.892-24.758
				c-7.438-7.19-16.784-12.992-27.776-17.246c-10.903-4.216-23.548-6.353-37.576-6.353c-8.934,0-17.387,0.657-25.136,1.961
				c-7.729,1.302-15.233,3.209-22.311,5.668c-7.207,2.509-14.483,5.983-21.631,10.334c-6.873,4.184-14.038,9.159-21.293,14.788
				c-4.012,3.108-5.12,8.607-2.484,12.945c1.588,2.928,8.688,22.313,10.621,28.694c0.951,3.146,3.17,10.828,5.315,18.257
				c1.979,6.844,3.856,13.352,4.549,15.626c1.172,3.863,4.553,6.643,8.567,7.038c0.332,0.032,0.66,0.049,0.988,0.049
				c3.65,0,7.047-2.003,8.797-5.268c5.572-10.402,11.436-17.584,17.416-21.347c5.936-3.729,12.015-5.543,18.589-5.543
				c2.851,0,5.316,0.408,7.331,1.216c2.041,0.814,3.737,1.849,5.031,3.056c1.168,1.095,2.029,2.337,2.625,3.787
				c0.652,1.591,0.969,3.334,0.969,5.326c0,3.19-0.177,5.963-0.526,8.24c-0.267,1.729-0.818,3.397-1.689,5.098
				c-1.107,2.151-2.438,4.282-3.896,6.249c-1.271,1.583-8.249,8.421-10.879,10.995c-1.646,1.612-2.897,2.846-3.303,3.27
				c-0.564,0.598-1.631,1.819-2.787,3.159c-0.896,1.039-2.511,2.908-3.162,3.59c-0.318,0.271-0.621,0.56-0.903,0.864
				c-9.161,9.926-15.885,20.87-20.009,32.544h77.744c0.522-0.446,1.056-0.895,1.603-1.343
				C1143.782,1078.388,1144.057,1078.135,1144.35,1077.826z"/>
			<g>
				<path fill="#009900" d="M1137.114,1062.628c2.284-2.428,15.434-12.574,18.437-14.577c4.286-3.142,8.646-6.93,13.076-11.36
					c4.428-4.43,8.252-9.502,11.47-15.223c3.216-5.714,5.857-12.146,7.933-19.294c2.068-7.144,3.106-15.29,3.106-24.438
					c0-8.433-1.605-16.613-4.82-24.547c-3.218-7.933-8.077-15.038-14.578-21.329c-6.506-6.287-14.651-11.325-24.438-15.113
					c-9.791-3.785-21.115-5.683-33.979-5.683c-8.436,0-16.26,0.609-23.477,1.821c-7.218,1.218-14.113,2.97-20.688,5.253
					c-6.575,2.288-13.149,5.435-19.723,9.435c-6.574,4.002-13.364,8.719-20.364,14.146c1.998,3.289,9.716,24.729,11.575,30.87
					c1.854,6.146,8.431,29.155,9.859,33.871c6.434-12.005,13.399-20.365,20.902-25.082c7.502-4.716,15.469-7.074,23.9-7.074
					c4.146,0,7.824,0.646,11.041,1.932c3.218,1.285,5.929,2.968,8.146,5.036c2.214,2.073,3.893,4.503,5.038,7.289
					c1.143,2.787,1.714,5.825,1.714,9.11c0,3.719-0.214,6.968-0.646,9.754c-0.427,2.787-1.32,5.505-2.679,8.146
					c-1.359,2.646-2.967,5.219-4.822,7.717c-1.858,2.502-13.543,13.688-14.897,15.114c-1.36,1.43-5.896,6.934-6.753,7.503
					c-8.576,9.291-14.688,19.366-18.329,30.227c-0.431,1.28-0.829,2.57-1.208,3.866h48.798
					C1124.374,1074.402,1129.839,1068.611,1137.114,1062.628z"/>
			</g>
		</g>
	</g>
	
		<use xlink:href="#q1_3"  width="121.408" height="228.998" x="-60.704" y="-114.499" transform="matrix(1.217 0.1404 0.1404 -1.217 420.0342 179.8042)" overflow="visible"/>
	<g>
		<g>
			<path fill="#003300" d="M1901.132,744.627c-6.478-1.978-13.447-2.979-20.716-2.979c-2.854,0-5.809,0.153-8.784,0.462
				c-10.385,1.07-21.221,4.457-32.21,10.063c-6.818,3.479-13.042,7.295-18.511,11.351c-5.446,4.049-10.486,8.476-14.981,13.161
				c-4.656,4.861-8.969,10.489-12.813,16.729c-3.566,5.789-7.038,12.268-10.321,19.257c-3.409,7.254-0.965,15.881,5.666,20.287
				c2.695,2.063,13.697,12.309,16.957,15.701c1.79,1.864,6.344,6.723,10.361,11.007c4.174,4.454,7.777,8.3,9.188,9.762
				c3.101,3.221,7.317,4.943,11.621,4.943c1.975,0,3.966-0.363,5.876-1.11c6.07-2.378,10.112-8.176,10.244-14.691
				c0.204-10.111,2.049-15.255,3.557-17.785c2.102-3.521,4.743-6.062,8.081-7.763c1.485-0.76,2.392-0.936,2.786-0.972
				c0.271-0.022,0.526-0.037,0.767-0.037c0.418,0,0.776,0.039,1.016,0.107c0.149,0.043,0.188,0.067,0.252,0.124
				c0.301,0.258,0.563,0.702,0.729,1.025c0.985,1.936,1.719,3.613,2.178,5.004c0.167,0.501,0.245,1.063,0.244,1.718
				c-0.006,1.42-0.125,2.882-0.36,4.371c-0.515,1.973-2.684,8.435-3.518,10.917c-0.643,1.906-1.121,3.361-1.264,3.838
				c-0.267,0.896-0.534,1.983-0.949,3.688c-0.209,0.847-0.567,2.315-0.771,3.063c-0.171,0.448-0.319,0.905-0.45,1.367
				c-3.363,11.992-4.211,23.841-2.514,35.216c1.618,10.843,5.063,21.486,10.247,31.644l6.172,12.098
				c0.308,0.602,1.079,2.195,1.91,3.902c1.08,2.225,2.245,4.617,2.776,5.661c2.274,4.465,6.498,7.618,11.425,8.532
				c0.979,0.183,1.966,0.271,2.943,0.271c3.946,0,7.796-1.449,10.78-4.135c3.479-3.127,7.182-5.709,11.258-8.359V753.736
				C1914.346,749.795,1908.027,746.739,1901.132,744.627z"/>
			<path fill="#003300" d="M1917.278,944.184c-12.059,6.151-20.996,16.632-25.173,29.508c-4.177,12.877-3.089,26.606,3.064,38.666
				c5.451,10.685,14.281,18.833,24.828,23.43v-92.889C1919.08,943.299,1918.173,943.729,1917.278,944.184z"/>
			<path fill="#025C01" d="M1898.777,750.996c-5.715-1.745-11.894-2.629-18.361-2.629c-2.58,0-5.256,0.14-7.956,0.418
				c-9.391,0.97-19.272,4.073-29.372,9.226c-6.423,3.277-12.263,6.855-17.366,10.642c-5.087,3.778-9.786,7.905-13.969,12.269
				c-4.266,4.452-8.226,9.625-11.771,15.379c-3.407,5.532-6.735,11.741-9.892,18.456c-1.741,3.709-0.522,8.072,2.962,10.229
				c2.224,1.525,14.45,12.867,18.182,16.75c1.824,1.897,6.197,6.563,10.428,11.075c3.973,4.238,7.77,8.286,9.112,9.685
				c1.55,1.607,3.659,2.472,5.811,2.471c0.987,0,1.984-0.182,2.938-0.556c3.036-1.188,5.058-4.087,5.123-7.347
				c0.189-9.532,1.771-16.854,4.691-21.755c2.9-4.861,6.611-8.398,11.344-10.813c2.05-1.047,3.977-1.658,5.72-1.818
				c0.512-0.047,1.015-0.069,1.495-0.069c1.177,0,2.272,0.145,3.249,0.424c1.241,0.356,2.314,0.937,3.274,1.76
				c1.057,0.906,1.924,2.044,2.653,3.477c1.173,2.299,2.063,4.357,2.646,6.13c0.444,1.34,0.658,2.74,0.654,4.28
				c-0.007,1.967-0.183,3.985-0.513,5.938c-0.33,1.604-2.84,9.08-3.785,11.894c-0.594,1.771-1.043,3.12-1.176,3.567
				c-0.19,0.641-0.509,1.914-0.851,3.309c-0.265,1.073-0.734,3.008-0.955,3.735c-0.131,0.311-0.241,0.629-0.334,0.954
				c-3.056,10.892-3.829,21.604-2.304,31.847c1.49,9.979,4.671,19.79,9.453,29.165l6.177,12.104
				c0.317,0.621,1.118,2.272,1.979,4.042c1.054,2.169,2.189,4.505,2.709,5.522c1.138,2.231,3.248,3.81,5.712,4.266
				c0.491,0.094,0.983,0.139,1.474,0.139c1.974,0,3.897-0.729,5.392-2.067c4.692-4.22,9.755-7.548,15.052-10.929
				c0.527-0.336,1.064-0.676,1.596-1.014V762.598C1913.952,757.358,1906.814,753.458,1898.777,750.996z"/>
			<path fill="#025C01" d="M1899.777,974.834c-3.514,10.827-2.599,22.373,2.576,32.511c4.014,7.868,10.215,14.086,17.646,18.109
				v-74.921C1910.344,955.764,1903.178,964.348,1899.777,974.834z"/>
			<g>
				<path fill="#009900" d="M1914.743,761.984c-5.229-4.526-11.336-7.856-18.321-9.996c-6.99-2.135-14.699-2.771-23.134-1.901
					c-8.438,0.871-17.279,3.664-26.535,8.386c-6.068,3.1-11.475,6.41-16.222,9.933c-4.745,3.523-9.065,7.315-12.956,11.375
					c-3.894,4.062-7.469,8.735-10.729,14.026c-3.26,5.295-6.414,11.183-9.456,17.656c2.645,1.635,16.068,14.228,19.661,17.963
					c3.591,3.741,16.77,17.883,19.531,20.751c0.222-10.999,2.164-19.57,5.83-25.722c3.667-6.146,8.532-10.771,14.603-13.866
					c2.98-1.521,5.864-2.409,8.652-2.665c2.786-0.255,5.354-0.041,7.709,0.634c2.354,0.681,4.455,1.813,6.303,3.396
					c1.845,1.586,3.372,3.563,4.578,5.927c1.365,2.676,2.403,5.092,3.119,7.255c0.716,2.161,1.067,4.446,1.063,6.847
					c-0.008,2.401-0.218,4.845-0.638,7.321c-0.417,2.484-4.719,14.82-5.17,16.348c-0.454,1.525-1.695,7.151-2.104,7.877
					c-2.76,9.835-3.456,19.327-2.091,28.479c1.366,9.154,4.251,18.049,8.658,26.688c1.523,2.981,5.471,10.721,6.179,12.107
					c0.708,1.39,3.744,7.713,4.688,9.565c5.331-4.793,10.927-8.427,16.012-11.671c1.931-1.231,3.955-2.51,6.026-3.788V901.84
					c-0.709-1.281-1.327-2.42-1.7-3.15c-2.992-5.86-4.46-11.851-4.407-17.969c0.052-6.118,1.929-13.428,5.63-21.926
					c0.091-0.313,0.257-0.771,0.479-1.328v-90.252C1918.386,765.369,1916.637,763.625,1914.743,761.984z"/>
				<path fill="#009900" d="M1909.537,996.96c2.563,5.023,6.191,9.144,10.463,12.242v-55.896
					C1906.461,963.122,1901.698,981.599,1909.537,996.96z"/>
			</g>
		</g>
	</g>
	<g>
		<g>
			<path fill="#003300" d="M1408.916,1078.48c-0.729,0-1.462-0.066-2.191-0.202c-3.665-0.683-6.807-3.026-8.5-6.351
				c-0.396-0.774-1.263-2.559-2.064-4.212c-0.618-1.271-1.192-2.458-1.421-2.905l-4.595-9c-3.854-7.557-6.42-15.477-7.623-23.544
				c-1.264-8.464-0.635-17.276,1.869-26.2c0.099-0.346,0.208-0.686,0.335-1.02c0.151-0.555,0.419-1.648,0.573-2.278
				c0.312-1.266,0.51-2.073,0.708-2.741c0.104-0.354,0.462-1.438,0.938-2.855c0.619-1.848,2.232-6.654,2.615-8.123
				c0.178-1.106,0.268-2.195,0.271-3.252c0.001-0.484-0.06-0.906-0.183-1.278c-0.343-1.031-0.887-2.281-1.619-3.722
				c-0.123-0.242-0.317-0.572-0.541-0.765c-0.049-0.04-0.076-0.062-0.188-0.093c-0.177-0.052-0.444-0.079-0.756-0.079
				c-0.177,0-0.367,0.009-0.568,0.026c-0.295,0.026-0.968,0.157-2.072,0.724c-2.482,1.267-4.449,3.153-6.014,5.773
				c-1.122,1.883-2.493,5.709-2.646,13.232c-0.1,4.85-3.105,9.163-7.622,10.933c-1.421,0.557-2.903,0.826-4.372,0.826
				c-3.202,0-6.341-1.282-8.646-3.678c-1.05-1.088-3.73-3.95-6.837-7.266c-2.988-3.188-6.377-6.801-7.709-8.188
				c-2.427-2.524-10.61-10.146-12.616-11.685c-4.936-3.276-6.752-9.695-4.218-15.095c2.443-5.2,5.026-10.021,7.682-14.328
				c2.862-4.643,6.068-8.83,9.535-12.444c3.345-3.488,7.095-6.782,11.146-9.794c4.068-3.019,8.699-5.855,13.772-8.444
				c8.177-4.172,16.238-6.69,23.966-7.488c2.214-0.228,4.412-0.344,6.536-0.344c5.408,0,10.594,0.746,15.413,2.218
				c6.798,2.082,12.845,5.396,17.98,9.844c5.046,4.369,9.121,9.563,12.121,15.44c2.996,5.873,5.051,11.633,6.106,17.119
				c1.015,5.283,1.427,10.415,1.229,15.254c-0.201,5.001-1.063,9.879-2.558,14.491c-1.349,4.158-2.896,7.978-4.598,11.354
				c-0.076,0.154-0.157,0.31-0.241,0.458c-0.81,1.454-4.229,8.713-4.904,10.562c-0.129,0.413-0.282,0.817-0.453,1.216
				c-2.608,5.983-3.175,9.625-3.191,11.627c-0.022,2.615,0.62,5.17,1.971,7.812c0.783,1.541,3.806,6.856,4.418,7.875
				c0.512,0.841,2.701,4.068,3.334,4.858c2.369,2.797,3.3,6.486,2.578,10.081c-0.722,3.596-3.074,6.626-6.343,8.292
				c-3.975,2.027-7.737,4.428-11.376,6.748c-3.859,2.462-7.257,4.695-10.415,7.533
				C1414.717,1077.401,1411.854,1078.48,1408.916,1078.48z"/>
			<path fill="#003300" d="M1440.403,1059.196c-5.908,0-11.827,1.427-17.114,4.125c-7.261,3.704-13,9.519-16.572,16.679h67.405
				c-0.039-0.077-0.072-0.155-0.111-0.232C1467.535,1067.078,1454.657,1059.196,1440.403,1059.196z"/>
			<path fill="#025C01" d="M1408.916,1071.48c-0.364,0-0.73-0.033-1.096-0.104c-1.833-0.34-3.403-1.514-4.25-3.174
				c-0.387-0.758-1.231-2.496-2.018-4.109c-0.64-1.314-1.233-2.545-1.472-3.008l-4.596-9.005c-3.561-6.978-5.927-14.275-7.033-21.7
				c-1.137-7.62-0.562-15.592,1.713-23.695c0.068-0.24,0.151-0.479,0.248-0.71c0.164-0.542,0.517-1.979,0.711-2.777
				c0.254-1.037,0.491-1.985,0.634-2.462c0.1-0.333,0.434-1.337,0.875-2.654c0.702-2.093,2.569-7.654,2.815-8.85
				c0.245-1.45,0.376-2.952,0.381-4.416c0.003-1.146-0.155-2.189-0.484-3.188c-0.438-1.317-1.1-2.851-1.972-4.561
				c-0.544-1.065-1.188-1.911-1.975-2.586c-0.714-0.612-1.514-1.043-2.438-1.312c-0.727-0.207-1.541-0.313-2.418-0.313
				c-0.356,0-0.73,0.018-1.111,0.052c-1.297,0.119-2.73,0.574-4.256,1.353c-3.521,1.798-6.28,4.431-8.438,8.048
				c-2.174,3.646-3.35,9.093-3.491,16.187c-0.05,2.425-1.554,4.581-3.813,5.466c-0.71,0.278-1.452,0.413-2.188,0.413
				c-1.602,0.001-3.171-0.641-4.322-1.839c-1-1.039-3.824-4.051-6.78-7.204c-3.147-3.355-6.401-6.828-7.759-8.242
				c-2.774-2.887-11.873-11.325-13.526-12.463c-2.594-1.602-3.5-4.849-2.204-7.606c2.349-4.996,4.823-9.616,7.358-13.732
				c2.639-4.28,5.585-8.13,8.759-11.442c3.111-3.243,6.608-6.313,10.396-9.128c3.797-2.813,8.143-5.478,12.921-7.917
				c7.515-3.834,14.865-6.143,21.854-6.862c2.01-0.207,4-0.313,5.92-0.313c4.813,0,9.41,0.658,13.661,1.957
				c5.987,1.834,11.304,4.74,15.81,8.64c4.455,3.86,8.059,8.447,10.701,13.634c2.74,5.37,4.609,10.595,5.56,15.524
				c0.929,4.828,1.308,9.496,1.129,13.874c-0.181,4.459-0.944,8.795-2.27,12.89c-1.255,3.864-2.685,7.397-4.249,10.504
				c-0.037,0.078-0.078,0.152-0.119,0.229c-1.053,1.878-4.885,10.089-5.371,11.618c-0.072,0.245-0.15,0.455-0.254,0.688
				c-2.414,5.549-3.657,10.248-3.688,13.972c-0.032,3.604,0.825,7.069,2.623,10.59c0.896,1.751,4.056,7.297,4.622,8.24
				c0.579,0.967,3.188,4.809,3.837,5.571c1.187,1.397,1.666,3.263,1.306,5.06c-0.358,1.798-1.521,3.332-3.153,4.165
				c-4.232,2.159-8.117,4.637-11.875,7.032c-3.941,2.516-7.708,4.991-11.2,8.132
				C1411.816,1070.939,1410.384,1071.48,1408.916,1071.48z"/>
			<path fill="#025C01" d="M1440.403,1064.196c-4.964,0-9.941,1.2-14.391,3.47c-5.521,2.817-9.989,7.089-13.019,12.334h54.842
				C1462.169,1070.214,1451.818,1064.196,1440.403,1064.196z"/>
			<g>
				<path fill="#009900" d="M1433.273,1044.434c-4.516,2.307-8.661,4.951-12.443,7.363c-3.783,2.414-7.947,5.117-11.914,8.684
					c-0.702-1.378-2.961-6.084-3.487-7.115c-0.525-1.033-3.464-6.79-4.598-9.012c-3.279-6.427-5.426-13.045-6.442-19.854
					c-1.016-6.81-0.497-13.872,1.558-21.189c0.304-0.538,1.228-4.725,1.563-5.859c0.336-1.136,3.536-10.313,3.848-12.162
					c0.313-1.844,0.47-3.661,0.476-5.448c0.005-1.785-0.258-3.483-0.791-5.093c-0.532-1.61-1.306-3.407-2.32-5.398
					c-0.896-1.759-2.034-3.229-3.405-4.408c-1.375-1.18-2.938-2.021-4.688-2.524c-1.753-0.503-3.663-0.662-5.736-0.474
					c-2.072,0.189-4.22,0.853-6.438,1.981c-4.517,2.305-8.137,5.744-10.865,10.318c-2.728,4.574-4.173,10.953-4.338,19.138
					c-2.055-2.134-11.86-12.656-14.532-15.438c-2.673-2.78-12.662-12.148-14.629-13.364c2.264-4.818,4.61-9.198,7.036-13.138
					c2.427-3.938,5.087-7.416,7.982-10.438c2.895-3.021,6.107-5.84,9.64-8.464c3.532-2.618,7.555-5.084,12.07-7.391
					c6.887-3.513,13.467-5.591,19.741-6.237c6.275-0.646,12.014-0.173,17.214,1.415c5.196,1.592,9.743,4.067,13.633,7.438
					c3.888,3.367,6.981,7.312,9.287,11.823c2.495,4.896,4.166,9.543,5.012,13.933c0.843,4.396,1.185,8.56,1.021,12.495
					c-0.157,3.941-0.819,7.703-1.98,11.283c-1.161,3.583-2.459,6.802-3.896,9.654c-1.059,1.893-5.327,10.916-5.887,12.841
					c-2.753,6.323-4.15,11.762-4.188,16.313c-0.037,4.555,1.055,9.009,3.278,13.37c0.979,1.913,4.183,7.535,4.825,8.604
					C1429.514,1039.146,1432.304,1043.29,1433.273,1044.434z"/>
				<path fill="#009900" d="M1428.741,1068.01c-5.296,2.703-9.247,6.992-11.586,11.99h46.54c-0.122-0.26-0.241-0.52-0.372-0.777
					C1456.869,1066.578,1441.386,1061.558,1428.741,1068.01z"/>
			</g>
		</g>
	</g>
	<g>
		<g>
			<path fill="#003300" d="M1837.915,395.874c-1.038,0-2.082-0.095-3.121-0.288c-5.22-0.969-9.692-4.31-12.104-9.041
				c-0.563-1.106-1.801-3.644-2.943-5.998c-0.88-1.81-1.698-3.5-2.022-4.138l-6.541-12.817c-5.489-10.761-9.143-22.04-10.855-33.529
				c-1.799-12.054-0.903-24.606,2.663-37.314c0.138-0.49,0.296-0.974,0.477-1.449c0.216-0.79,0.599-2.348,0.816-3.244
				c0.441-1.803,0.728-2.956,1.009-3.908c0.148-0.502,0.657-2.045,1.336-4.066c0.887-2.63,3.185-9.477,3.729-11.568
				c0.25-1.578,0.378-3.127,0.383-4.631c0.001-0.691-0.083-1.29-0.259-1.821c-0.487-1.471-1.262-3.251-2.309-5.3
				c-0.176-0.345-0.451-0.815-0.771-1.088c-0.066-0.058-0.108-0.086-0.268-0.131c-0.252-0.072-0.634-0.114-1.076-0.114
				c-0.251,0-0.522,0.013-0.811,0.04c-0.421,0.038-1.379,0.224-2.953,1.027c-3.536,1.805-6.337,4.495-8.563,8.225
				c-1.599,2.681-3.552,8.131-3.771,18.845c-0.14,6.906-4.423,13.049-10.854,15.569c-2.023,0.791-4.135,1.176-6.229,1.176
				c-4.561,0-9.028-1.826-12.313-5.237c-1.494-1.549-5.314-5.625-9.736-10.344c-4.257-4.54-9.082-9.686-10.979-11.663
				c-3.455-3.595-15.111-14.448-17.969-16.637c-7.025-4.668-9.615-13.809-6.005-21.496c3.479-7.405,7.158-14.27,10.938-20.404
				c4.076-6.612,8.644-12.575,13.579-17.726c4.763-4.967,10.104-9.658,15.875-13.947c5.794-4.296,12.389-8.339,19.612-12.026
				c11.646-5.94,23.127-9.527,34.131-10.664c3.15-0.325,6.281-0.489,9.308-0.489c7.702,0,15.087,1.063,21.95,3.158
				c9.68,2.966,18.291,7.68,25.607,14.018c7.187,6.222,12.989,13.62,17.264,21.989c4.267,8.364,7.19,16.566,8.692,24.379
				c1.446,7.524,2.033,14.831,1.753,21.723c-0.285,7.122-1.514,14.068-3.642,20.636c-1.919,5.921-4.122,11.361-6.544,16.17
				c-0.111,0.22-0.229,0.438-0.348,0.653c-1.149,2.07-6.021,12.407-6.984,15.037c-0.184,0.588-0.4,1.167-0.646,1.731
				c-3.714,8.521-4.521,13.707-4.546,16.558c-0.032,3.725,0.886,7.362,2.805,11.123c1.118,2.194,5.421,9.766,6.292,11.215
				c0.729,1.196,3.85,5.795,4.748,6.92c3.376,3.983,4.699,9.237,3.674,14.356c-1.026,5.119-4.381,9.436-9.031,11.809
				c-5.66,2.887-11.021,6.305-16.202,9.61c-5.496,3.506-10.333,6.687-14.831,10.728
				C1846.176,394.337,1842.097,395.874,1837.915,395.874z"/>
			<path fill="#003300" d="M1882.757,368.411c-8.414,0-16.845,2.032-24.374,5.875c-12.775,6.518-22.248,17.622-26.674,31.265
				c-4.424,13.646-3.271,28.194,3.249,40.973c9.221,18.069,27.562,29.297,47.859,29.297c8.413,0,16.842-2.03,24.374-5.874
				c4.815-2.458,9.1-5.557,12.809-9.125v-77.445C1910.171,373.9,1896.945,368.411,1882.757,368.411z"/>
			<path fill="#025C01" d="M1837.915,385.905c-0.521,0-1.041-0.047-1.562-0.145c-2.609-0.484-4.848-2.155-6.054-4.52
				c-0.549-1.079-1.754-3.555-2.87-5.853c-0.91-1.875-1.76-3.624-2.096-4.283l-6.545-12.824c-5.068-9.934-8.438-20.33-10.017-30.903
				c-1.618-10.852-0.798-22.204,2.438-33.745c0.099-0.345,0.216-0.681,0.354-1.011c0.231-0.771,0.732-2.82,1.013-3.958
				c0.36-1.477,0.699-2.827,0.901-3.505c0.14-0.475,0.614-1.905,1.244-3.781c1.001-2.981,3.66-10.9,4.013-12.602
				c0.349-2.066,0.534-4.206,0.542-6.29c0.004-1.632-0.225-3.118-0.692-4.537c-0.62-1.877-1.563-4.06-2.805-6.494
				c-0.775-1.518-1.694-2.723-2.813-3.684c-1.017-0.872-2.155-1.485-3.472-1.864c-1.033-0.296-2.195-0.448-3.443-0.448
				c-0.509,0-1.041,0.025-1.584,0.074c-1.847,0.169-3.888,0.817-6.061,1.926c-5.014,2.558-8.943,6.306-12.02,11.459
				c-3.096,5.193-4.77,12.948-4.973,23.05c-0.069,3.454-2.211,6.525-5.429,7.784c-1.013,0.396-2.067,0.588-3.113,0.588
				c-2.279,0-4.516-0.913-6.156-2.618c-1.425-1.48-5.446-5.769-9.656-10.259c-4.48-4.781-9.115-9.725-11.05-11.738
				c-3.95-4.112-16.908-16.13-19.263-17.749c-3.693-2.282-4.984-6.906-3.141-10.835c3.346-7.115,6.869-13.695,10.479-19.557
				c3.758-6.097,7.953-11.578,12.474-16.295c4.433-4.622,9.41-8.995,14.801-13c5.407-4.01,11.598-7.801,18.4-11.274
				c10.702-5.459,21.173-8.748,31.123-9.775c2.861-0.294,5.697-0.443,8.432-0.443c6.854,0,13.4,0.938,19.454,2.786
				c8.526,2.612,16.099,6.751,22.513,12.304c6.348,5.498,11.477,12.029,15.24,19.413c3.902,7.648,6.564,15.087,7.916,22.111
				c1.321,6.876,1.861,13.523,1.608,19.759c-0.259,6.349-1.347,12.524-3.232,18.353c-1.786,5.505-3.819,10.538-6.05,14.959
				c-0.056,0.11-0.114,0.219-0.172,0.327c-1.497,2.674-6.954,14.367-7.649,16.545c-0.103,0.349-0.214,0.648-0.356,0.981
				c-3.441,7.901-5.21,14.594-5.255,19.896c-0.044,5.133,1.177,10.067,3.733,15.081c1.274,2.493,5.774,10.391,6.584,11.735
				c0.823,1.376,4.539,6.848,5.463,7.936c1.688,1.991,2.373,4.645,1.858,7.204c-0.512,2.561-2.167,4.745-4.492,5.932
				c-6.025,3.075-11.56,6.603-16.911,10.015c-5.611,3.583-10.976,7.109-15.948,11.581
				C1842.045,385.136,1840.005,385.905,1837.915,385.905z"/>
			<path fill="#025C01" d="M1882.757,375.532c-7.069,0-14.158,1.709-20.491,4.941c-10.74,5.481-18.707,14.817-22.428,26.291
				c-3.72,11.474-2.751,23.706,2.73,34.448c7.754,15.198,23.177,24.638,40.249,24.638c7.068,0,14.153-1.708,20.489-4.938
				c6.94-3.541,12.573-8.645,16.691-14.661v-51.118C1911.643,382.919,1897.851,375.532,1882.757,375.532z"/>
			<g>
				<path fill="#009900" d="M1872.602,347.388c-6.428,3.282-12.332,7.051-17.721,10.486c-5.388,3.438-11.315,7.288-16.966,12.367
					c-1-1.962-4.217-8.665-4.967-10.136c-0.751-1.472-4.933-9.67-6.547-12.831c-4.671-9.152-7.729-18.577-9.175-28.277
					c-1.446-9.698-0.709-19.755,2.215-30.176c0.433-0.767,1.748-6.729,2.229-8.347c0.479-1.616,5.036-14.688,5.479-17.32
					c0.442-2.625,0.667-5.213,0.676-7.759c0.007-2.542-0.367-4.963-1.127-7.253c-0.758-2.292-1.857-4.852-3.304-7.687
					c-1.278-2.505-2.897-4.599-4.854-6.28c-1.958-1.679-4.183-2.877-6.678-3.597c-2.496-0.715-5.217-0.941-8.169-0.672
					c-2.954,0.271-6.01,1.213-9.168,2.824c-6.433,3.28-11.588,8.179-15.474,14.693c-3.886,6.516-5.942,15.6-6.179,27.254
					c-2.927-3.039-16.891-18.023-20.693-21.987c-3.809-3.96-18.032-17.302-20.833-19.033c3.224-6.862,6.563-13.1,10.02-18.708
					c3.456-5.607,7.244-10.562,11.368-14.865c4.122-4.298,8.7-8.317,13.729-12.052c5.028-3.73,10.759-7.24,17.188-10.522
					c9.808-5.003,19.178-7.963,28.116-8.886c8.937-0.92,17.104-0.247,24.513,2.014c7.401,2.268,13.875,5.796,19.413,10.592
					c5.537,4.796,9.946,10.41,13.226,16.837c3.559,6.976,5.935,13.59,7.139,19.842c1.2,6.256,1.688,12.188,1.457,17.795
					c-0.227,5.612-1.172,10.969-2.822,16.068c-1.655,5.103-3.502,9.686-5.551,13.749c-1.508,2.695-7.588,15.546-8.384,18.287
					c-3.922,9.005-5.91,16.75-5.966,23.232c-0.056,6.483,1.499,12.828,4.67,19.041c1.393,2.724,5.955,10.731,6.87,12.253
					C1867.247,339.857,1871.222,345.759,1872.602,347.388z"/>
				<circle fill="#009900" cx="1882.788" cy="413.569" r="36.608"/>
			</g>
		</g>
	</g>
	<g>
		<g>
			<path fill="#003300" d="M674.56,1058.898c0.277-0.641,0.522-1.296,0.73-1.959c1.092-2.979,6.604-14.678,7.904-17.021
				c0.135-0.243,0.268-0.489,0.393-0.739c2.742-5.441,5.235-11.599,7.407-18.301c2.408-7.433,3.796-15.294,4.121-23.354
				c0.316-7.801-0.349-16.068-1.983-24.586c-1.7-8.842-5.011-18.125-9.84-27.591c-4.835-9.472-11.404-17.844-19.536-24.886
				c-8.282-7.173-18.027-12.508-28.982-15.864c-7.768-2.371-16.125-3.573-24.842-3.573c-3.423,0-6.966,0.188-10.533,0.555
				c-12.452,1.286-25.446,5.345-38.625,12.066c-8.178,4.175-15.641,8.748-22.196,13.61c-6.532,4.854-12.576,10.163-17.966,15.784
				c-5.588,5.829-10.757,12.578-15.368,20.061c-4.276,6.943-8.439,14.712-12.377,23.095c-4.087,8.697-1.157,19.044,6.794,24.326
				c3.231,2.479,16.426,14.762,20.335,18.828c2.146,2.237,7.604,8.063,12.424,13.2c5.005,5.34,9.329,9.952,11.019,11.706
				c3.718,3.86,8.775,5.928,13.938,5.928c2.367,0,4.756-0.437,7.046-1.332c7.28-2.852,12.127-9.804,12.285-17.62
				c0.246-12.125,2.457-18.293,4.265-21.326c2.521-4.223,5.688-7.268,9.691-9.31c1.781-0.909,2.865-1.12,3.341-1.163
				c0.324-0.03,0.631-0.045,0.916-0.045c0.502,0,0.933,0.048,1.218,0.129c0.18,0.052,0.229,0.084,0.302,0.149
				c0.36,0.309,0.676,0.841,0.874,1.229c1.184,2.318,2.061,4.333,2.609,5.998c0.2,0.603,0.294,1.278,0.293,2.063
				c-0.005,1.702-0.147,3.455-0.433,5.24c-0.617,2.365-3.218,10.113-4.22,13.093c-0.768,2.287-1.344,4.032-1.513,4.602
				c-0.317,1.077-0.642,2.382-1.141,4.422c-0.249,1.016-0.682,2.777-0.924,3.673c-0.205,0.537-0.386,1.087-0.54,1.641
				c-2.688,9.574-4.025,19.068-4.026,28.373h82.104c-0.069-0.785-0.113-1.571-0.105-2.362
				C669.444,1074.411,670.357,1068.542,674.56,1058.898z"/>
			<path fill="#025C01" d="M665.692,1053.425c0.164-0.378,0.29-0.717,0.404-1.109c0.787-2.466,6.964-15.698,8.657-18.727
				c0.066-0.122,0.132-0.245,0.195-0.37c2.521-5.004,4.826-10.697,6.847-16.93c2.134-6.596,3.365-13.584,3.658-20.771
				c0.287-7.059-0.324-14.579-1.819-22.361c-1.528-7.949-4.542-16.368-8.959-25.023c-4.262-8.355-10.064-15.749-17.25-21.971
				c-7.259-6.284-15.827-10.969-25.477-13.925c-6.853-2.092-14.26-3.153-22.02-3.153c-3.094,0-6.303,0.169-9.541,0.502
				c-11.261,1.163-23.109,4.884-35.223,11.063c-7.701,3.931-14.706,8.222-20.825,12.76c-6.101,4.533-11.735,9.479-16.751,14.713
				c-5.115,5.338-9.862,11.541-14.116,18.441c-4.086,6.634-8.074,14.08-11.858,22.133c-2.088,4.447-0.628,9.68,3.552,12.262
				c2.665,1.832,17.329,15.436,21.801,20.087c2.188,2.278,7.434,7.874,12.504,13.284c4.767,5.082,9.316,9.936,10.93,11.61
				c1.856,1.931,4.388,2.964,6.968,2.963c1.184,0,2.379-0.218,3.523-0.666c3.642-1.425,6.063-4.9,6.144-8.811
				c0.229-11.433,2.125-20.209,5.628-26.087c3.479-5.832,7.928-10.072,13.6-12.968c2.458-1.255,4.771-1.988,6.859-2.18
				c0.614-0.059,1.216-0.084,1.792-0.084c1.412,0,2.729,0.172,3.897,0.506c1.487,0.43,2.776,1.123,3.929,2.108
				c1.265,1.09,2.306,2.451,3.183,4.17c1.405,2.757,2.475,5.227,3.174,7.351c0.532,1.604,0.789,3.287,0.784,5.134
				c-0.008,2.359-0.219,4.78-0.614,7.118c-0.396,1.926-3.404,10.889-4.538,14.263c-0.714,2.123-1.25,3.742-1.409,4.278
				c-0.229,0.768-0.611,2.295-1.021,3.967c-0.313,1.288-0.881,3.606-1.146,4.479c-0.156,0.373-0.29,0.754-0.399,1.145
				c-2.601,9.274-3.814,18.439-3.649,27.372h62.852c-0.147-1.344-0.222-2.694-0.21-4.06
				C659.796,1069.941,661.798,1062.366,665.692,1053.425z"/>
			<path fill="#009900" d="M656.828,1041.505c0.9-3.102,7.782-17.646,9.488-20.695c2.315-4.599,4.405-9.783,6.278-15.56
				c1.87-5.771,2.94-11.833,3.195-18.185c0.261-6.348-0.29-13.061-1.649-20.142c-1.361-7.075-4.052-14.561-8.076-22.455
				c-3.712-7.272-8.701-13.628-14.97-19.056c-6.268-5.428-13.593-9.421-21.97-11.987c-8.383-2.56-17.628-3.32-27.742-2.28
				c-10.116,1.046-20.721,4.396-31.818,10.059c-7.278,3.715-13.763,7.688-19.454,11.908c-5.689,4.229-10.871,8.773-15.536,13.641
				c-4.667,4.871-8.954,10.478-12.865,16.823c-3.91,6.348-7.692,13.406-11.34,21.173c3.17,1.96,19.27,17.059,23.578,21.541
				c4.306,4.486,20.108,21.444,23.422,24.884c0.266-13.188,2.595-23.471,6.991-30.845c4.396-7.372,10.231-12.916,17.511-16.629
				c3.575-1.823,7.033-2.891,10.375-3.195c3.341-0.305,6.42-0.049,9.245,0.761c2.823,0.813,5.342,2.17,7.558,4.07
				c2.211,1.901,4.043,4.271,5.49,7.106c1.637,3.21,2.882,6.104,3.74,8.698c0.857,2.594,1.282,5.332,1.273,8.209
				c-0.009,2.883-0.261,5.812-0.765,8.781c-0.5,2.979-5.658,17.772-6.2,19.604c-0.544,1.832-2.033,8.577-2.521,9.444
				c-3.177,11.317-4.066,22.256-2.688,32.819h44.335c-1.114-4.021-1.673-8.085-1.638-12.202
				C650.139,1060.462,652.389,1051.696,656.828,1041.505z"/>
		</g>
	</g>
	
		<use xlink:href="#q4_3"  width="135.977" height="224.814" x="-67.989" y="-112.407" transform="matrix(1.4293 0 0 -1.4293 1652.0615 901.7451)" overflow="visible"/>
	
		<use xlink:href="#q4_3"  width="135.977" height="224.814" x="-67.989" y="-112.407" transform="matrix(1 0 0 -1 1722.2949 583.9502)" overflow="visible" opacity="0.16"/>
	
		<use xlink:href="#q4_3"  width="135.977" height="224.814" x="-67.989" y="-112.407" transform="matrix(0.9046 0 0 -0.9046 417.5615 967.7178)" overflow="visible" opacity="0.16"/>
	<g id="XMLID_11_">
		<g>
			<path fill="#003300" d="M1631.905,14.006c-0.62,4.812,1.717,9.523,5.923,11.94c1.859,1.068,3.922,1.595,5.977,1.595
				c2.597,0,5.179-0.84,7.322-2.491c5.961-4.589,9.803-5.913,11.978-6.215c0.822-0.115,1.635-0.173,2.407-0.173
				c2.075,0,3.992,0.409,5.86,1.25c1.129,0.508,1.649,0.949,1.862,1.169c0.387,0.4,0.667,0.784,0.785,1.063
				c0.043,0.104,0.046,0.141,0.044,0.205c-0.012,0.291-0.146,0.649-0.261,0.9c-0.66,1.472-1.296,2.677-1.88,3.579
				c-0.219,0.336-0.513,0.649-0.896,0.956c-0.821,0.655-1.729,1.269-2.693,1.82c-1.387,0.62-6.143,2.368-7.972,3.04
				c-1.409,0.518-2.481,0.918-2.824,1.059c-0.646,0.263-1.4,0.613-2.58,1.163c-0.588,0.274-1.61,0.75-2.14,0.98
				c-0.339,0.11-0.673,0.235-1.001,0.375c-8.527,3.631-15.797,8.656-21.609,14.937c-5.538,5.985-10.108,12.942-13.594,20.682
				c-1.021,2.27-3.669,8.155-4.15,9.222c-0.206,0.46-0.774,1.658-1.384,2.939c-0.785,1.658-1.628,3.438-1.984,4.23
				c-1.527,3.399-1.393,7.316,0.371,10.601s4.952,5.563,8.631,6.166c4.186,0.686,8.057,1.938,12.314,3.381l0.098,0.033
				c4.081,1.385,8.303,2.817,12.364,4.646c1.594,0.717,3.3,1.08,5.002,1.08c1.87,0,3.735-0.438,5.438-1.322
				c3.258-1.689,5.552-4.727,6.245-8.329c0.222-0.984,1.365-4.708,1.697-5.623c0.417-1.128,2.683-6.83,3.382-8.386
				c1.216-2.702,2.808-4.803,4.861-6.423c1.571-1.238,4.766-3.073,11.063-4.785c0.418-0.114,0.829-0.25,1.232-0.408
				c1.868-0.627,9.664-2.499,11.299-2.779c0.174-0.029,0.349-0.062,0.521-0.099c3.697-0.788,7.645-1.971,11.727-3.519
				c4.525-1.717,8.867-4.097,12.907-7.076c3.892-2.869,7.633-6.401,11.123-10.501c3.618-4.252,6.826-9.46,9.535-15.479
				c2.708-6.019,4.209-12.45,4.459-19.115c0.256-6.793-0.945-13.582-3.574-20.186c-0.015-0.036-0.032-0.071-0.046-0.107h-105.871
				c-0.199,1.4-0.407,2.858-0.604,4.258C1632.666,8.524,1632.09,12.578,1631.905,14.006z"/>
			<path fill="#003300" d="M1616.008,174.483c-5.353,0-10.553-1.12-15.459-3.328c-18.958-8.532-27.438-30.898-18.909-49.857
				c6.08-13.509,19.582-22.237,34.398-22.237c5.352,0,10.553,1.12,15.459,3.328c18.958,8.533,27.439,30.898,18.911,49.857
				c-6.08,13.509-19.582,22.238-34.397,22.238C1616.009,174.483,1616.009,174.483,1616.008,174.483z"/>
			<path fill="#025C01" d="M1637.855,13.773c-0.312,2.406,0.857,4.762,2.962,5.97c0.93,0.534,1.961,0.797,2.986,0.797
				c1.298,0,2.591-0.42,3.661-1.246c5.621-4.327,10.604-6.818,14.812-7.403c1.097-0.153,2.186-0.23,3.233-0.23
				c2.941,0,5.664,0.582,8.322,1.778c1.563,0.702,2.813,1.534,3.718,2.475c0.916,0.949,1.593,1.933,2.005,2.917
				c0.369,0.886,0.534,1.779,0.506,2.721c-0.035,1.032-0.292,2.064-0.784,3.158c-0.787,1.749-1.567,3.225-2.319,4.383
				c-0.574,0.885-1.29,1.664-2.187,2.38c-1.14,0.907-2.394,1.745-3.677,2.462c-1.083,0.554-6.589,2.577-8.66,3.339
				c-1.311,0.481-2.308,0.851-2.631,0.982c-0.459,0.188-1.345,0.596-2.313,1.046c-0.746,0.348-2.09,0.974-2.616,1.186
				c-0.24,0.068-0.477,0.152-0.707,0.25c-7.743,3.297-14.322,7.836-19.556,13.491c-5.099,5.508-9.313,11.922-12.525,19.066
				c-1.021,2.271-3.671,8.16-4.148,9.223c-0.216,0.477-0.807,1.721-1.437,3.05c-0.766,1.615-1.587,3.349-1.937,4.121
				c-0.765,1.7-0.694,3.659,0.188,5.301c0.882,1.642,2.479,2.781,4.314,3.083c4.635,0.76,8.754,2.089,13.271,3.621l0.098,0.033
				c4.217,1.43,8.573,2.91,12.899,4.856c0.784,0.353,1.623,0.528,2.462,0.528c0.95,0,1.898-0.226,2.766-0.674
				c1.628-0.845,2.778-2.388,3.128-4.189c0.188-0.98,1.55-5.417,1.939-6.469c0.396-1.074,2.724-6.955,3.537-8.767
				c1.622-3.605,3.787-6.442,6.619-8.673c2.923-2.303,7.365-4.276,13.206-5.863c0.247-0.067,0.46-0.138,0.696-0.236
				c1.504-0.578,10.303-2.725,12.419-3.079c0.088-0.015,0.175-0.031,0.261-0.049c3.401-0.725,7.052-1.821,10.849-3.261
				c4.016-1.522,7.874-3.64,11.477-6.294c3.521-2.597,6.923-5.813,10.112-9.56c3.252-3.822,6.155-8.55,8.635-14.054
				c2.39-5.311,3.714-10.99,3.936-16.879c0.226-5.953-0.836-11.918-3.151-17.736c-0.179-0.447-0.381-0.888-0.573-1.331h-93.854
				c-0.188,1.33-0.388,2.724-0.584,4.104C1638.611,8.337,1638.039,12.357,1637.855,13.773z"/>
			<path fill="#025C01" d="M1616.008,167.483c-4.497,0-8.87-0.942-12.996-2.799c-15.94-7.175-23.072-25.981-15.898-41.924
				c5.111-11.36,16.467-18.7,28.927-18.7c4.497,0,8.869,0.941,12.997,2.799c15.939,7.174,23.075,25.981,15.9,41.923
				c-5.111,11.36-16.468,18.7-28.927,18.7C1616.009,167.483,1616.01,167.483,1616.008,167.483z"/>
			<g>
				<path fill="#009900" d="M1661.449,0.949c5.273-0.734,10.224-0.062,14.847,2.019c2.271,1.021,4.129,2.282,5.574,3.781
					c1.444,1.498,2.517,3.088,3.222,4.77c0.703,1.683,1.023,3.428,0.965,5.238c-0.062,1.81-0.498,3.615-1.309,5.416
					c-0.917,2.038-1.836,3.766-2.758,5.188c-0.923,1.422-2.083,2.69-3.479,3.804c-1.396,1.115-2.913,2.129-4.546,3.041
					c-1.638,0.912-10.8,4.161-11.895,4.608c-1.1,0.448-4.941,2.346-5.554,2.447c-6.99,2.979-12.825,6.993-17.502,12.045
					c-4.677,5.055-8.495,10.872-11.457,17.451c-1.021,2.273-3.674,8.166-4.148,9.223c-0.478,1.058-2.735,5.763-3.37,7.174
					c5.264,0.863,9.979,2.419,14.229,3.86c4.247,1.441,8.907,3.019,13.53,5.1c0.284-1.473,1.771-6.243,2.205-7.414
					c0.433-1.17,2.812-7.188,3.693-9.147c2.009-4.465,4.8-8.105,8.377-10.924c3.573-2.818,8.688-5.132,15.347-6.94
					c1.851-0.768,11.561-3.085,13.7-3.442c3.124-0.665,6.446-1.667,9.97-3.002c3.52-1.335,6.866-3.172,10.041-5.513
					c3.171-2.338,6.205-5.212,9.105-8.619c2.896-3.405,5.475-7.614,7.729-12.628c2.079-4.621,3.218-9.502,3.411-14.643
					c0.175-4.65-0.563-9.264-2.193-13.841h-84.04c-0.596,4.179-1.16,8.142-1.341,9.541
					C1650.293,4.548,1656.174,1.684,1661.449,0.949z"/>
				<circle fill="#009900" cx="1616.024" cy="130.771" r="25.705"/>
			</g>
		</g>
	</g>
	
		<use xlink:href="#q5_3"  width="165.084" height="214.962" x="-82.542" y="-107.481" transform="matrix(1 0 0 -1 859.21 956)" overflow="visible"/>
	<g>
		<g>
			<path fill="#003300" d="M132.421,1065.434c-3.241,0-6.489-0.688-9.523-2.056c-7.736-3.481-15.77-6.208-23.539-8.845l-0.186-0.063
				c-8.11-2.748-15.479-5.132-23.444-6.438c-7.004-1.147-13.076-5.484-16.432-11.737c-3.358-6.253-3.618-13.71-0.707-20.182
				c0.679-1.511,2.283-4.898,3.778-8.057c1.156-2.438,2.242-4.719,2.634-5.595c0.917-2.032,5.959-13.236,7.902-17.558
				c6.632-14.734,15.336-27.979,25.879-39.373c11.066-11.957,24.906-21.524,41.14-28.438c0.625-0.267,1.261-0.505,1.906-0.714
				c1.006-0.437,2.954-1.344,4.073-1.865c2.246-1.046,3.687-1.714,4.912-2.214c0.652-0.267,2.694-1.028,5.377-2.015
				c3.482-1.279,12.536-4.607,15.176-5.788c1.835-1.05,3.564-2.217,5.127-3.465c0.731-0.584,1.291-1.182,1.707-1.82
				c1.112-1.716,2.318-4.011,3.579-6.813c0.216-0.479,0.474-1.159,0.493-1.715c0.004-0.12-0.002-0.188-0.083-0.389
				c-0.225-0.533-0.759-1.263-1.495-2.023c-0.405-0.422-1.396-1.261-3.545-2.228c-3.557-1.603-7.207-2.379-11.157-2.379
				c-1.474,0-3.018,0.109-4.586,0.329c-4.137,0.574-11.451,3.095-22.799,11.831c-4.084,3.145-9,4.742-13.94,4.742
				c-3.912,0-7.838-1.003-11.378-3.036c-8.007-4.603-12.456-13.571-11.276-22.731c0.352-2.718,1.448-10.436,2.606-18.558
				c1.188-8.333,2.534-17.778,3.012-21.443c0.861-6.619,2.426-27.845,2.318-32.649c-1.015-11.234,6.351-21.588,17.391-24.254
				c10.627-2.565,20.868-4.473,30.437-5.663c6.229-0.773,12.394-1.167,18.33-1.167c3.88,0,7.75,0.167,11.504,0.498
				c9.179,0.813,18.538,2.459,27.833,4.893c9.305,2.438,19.04,5.935,28.94,10.39c15.927,7.168,29.272,16.141,39.667,26.664
				c10.551,10.694,18.41,22.41,23.367,34.831c5.005,12.573,7.292,25.496,6.804,38.431c-0.476,12.688-3.333,24.934-8.489,36.393
				c-5.158,11.46-11.265,21.374-18.153,29.47c-6.645,7.807-13.767,14.529-21.176,19.992c-7.691,5.671-15.958,10.202-24.573,13.471
				c-7.771,2.945-15.283,5.199-22.325,6.698c-0.331,0.07-0.662,0.133-0.993,0.188c-3.112,0.533-17.954,4.098-21.511,5.291
				c-0.768,0.302-1.551,0.561-2.346,0.775c-11.994,3.259-18.075,6.752-21.066,9.108c-3.914,3.085-6.94,7.084-9.255,12.228
				c-1.333,2.964-5.645,13.818-6.438,15.966c-0.632,1.74-2.813,8.83-3.231,10.705c-1.324,6.857-5.691,12.642-11.891,15.856
				C139.532,1064.601,135.981,1065.434,132.421,1065.434z"/>
			<path fill="#003300" d="M101.237,1043.067c-9.341-4.203-19.243-6.335-29.431-6.335c-28.208,0-53.913,16.615-65.487,42.335
				c-0.139,0.31-0.257,0.622-0.392,0.933h131.682C130.747,1064.146,118.194,1050.699,101.237,1043.067z"/>
			<path fill="#025C01" d="M132.274,1052.064c-1.597,0-3.194-0.337-4.687-1.008c-8.236-3.707-16.534-6.521-24.558-9.244
				l-0.186-0.063c-8.602-2.915-16.444-5.446-25.266-6.893c-3.501-0.574-6.537-2.742-8.216-5.868
				c-1.679-3.127-1.809-6.856-0.353-10.092c0.662-1.472,2.226-4.771,3.683-7.848c1.199-2.529,2.324-4.897,2.731-5.808
				c0.913-2.022,5.958-13.233,7.901-17.56c6.121-13.602,14.143-25.813,23.846-36.299c9.963-10.766,22.488-19.406,37.23-25.685
				c0.438-0.188,0.889-0.347,1.346-0.479c1.002-0.402,3.56-1.596,4.98-2.258c1.842-0.854,3.529-1.634,4.403-1.991
				c0.615-0.251,2.513-0.953,5.005-1.869c3.947-1.449,14.429-5.304,16.491-6.355c2.443-1.365,4.83-2.962,6.996-4.688
				c1.707-1.362,3.069-2.847,4.163-4.53c1.432-2.206,2.917-5.017,4.416-8.347c0.937-2.081,1.426-4.049,1.493-6.013
				c0.058-1.792-0.257-3.493-0.961-5.18c-0.786-1.873-2.071-3.746-3.815-5.555c-1.725-1.791-4.107-3.375-7.078-4.713
				c-5.061-2.275-10.244-3.385-15.844-3.385c-1.999,0-4.071,0.146-6.159,0.438c-8.008,1.114-17.493,5.855-28.195,14.095
				c-2.042,1.571-4.501,2.372-6.97,2.372c-1.956,0-3.919-0.502-5.689-1.521c-4.002-2.301-6.228-6.785-5.639-11.365
				c0.35-2.695,1.439-10.351,2.588-18.406c1.25-8.774,2.543-17.849,3.029-21.581c0.983-7.566,2.675-31.127,2.393-34.933
				c-0.712-5.764,3.029-10.979,8.673-12.344c10.208-2.466,20.021-4.293,29.165-5.432c5.76-0.717,11.453-1.079,16.919-1.079
				c3.547,0,7.08,0.152,10.502,0.453c8.537,0.757,17.264,2.292,25.943,4.563c8.691,2.276,17.822,5.56,27.144,9.754
				c14.639,6.589,26.828,14.757,36.228,24.273c9.471,9.601,16.496,20.042,20.884,31.04c4.41,11.075,6.427,22.434,6.002,33.767
				c-0.422,11.212-2.943,22.021-7.493,32.135c-4.717,10.478-10.246,19.479-16.435,26.756c-6.076,7.135-12.553,13.257-19.255,18.2
				c-6.855,5.053-14.205,9.084-21.846,11.98c-7.229,2.74-14.176,4.828-20.654,6.208c-0.164,0.034-0.329,0.065-0.496,0.095
				c-4.029,0.673-20.78,4.762-23.644,5.86c-0.45,0.187-0.855,0.321-1.325,0.448c-11.12,3.021-19.577,6.776-25.142,11.162
				c-5.392,4.248-9.514,9.647-12.602,16.513c-1.553,3.448-5.979,14.646-6.734,16.688c-0.745,2.004-3.335,10.448-3.696,12.315
				c-0.662,3.43-2.856,6.366-5.955,7.976C135.888,1051.635,134.083,1052.064,132.274,1052.064z"/>
			<path fill="#025C01" d="M96.55,1051.581c-7.859-3.537-16.183-5.33-24.744-5.33c-23.037,0-44.086,13.181-54.196,33.749h108.309
				C119.941,1067.82,109.859,1057.57,96.55,1051.581z"/>
			<g>
				<path fill="#009900" d="M132.274,1031.122c-8.801-3.961-17.673-6.965-25.759-9.709c-8.093-2.742-17.069-5.705-27.09-7.349
					c1.208-2.687,5.511-11.645,6.416-13.657c0.907-2.014,5.957-13.231,7.901-17.561c5.637-12.523,12.908-23.601,21.812-33.224
					c8.902-9.619,20.009-17.264,33.32-22.933c1.162-0.19,8.479-3.808,10.569-4.657c2.084-0.854,19.527-7.037,22.645-8.773
					c3.109-1.735,5.994-3.667,8.655-5.789c2.657-2.12,4.865-4.533,6.623-7.24c1.755-2.707,3.504-5.997,5.25-9.878
					c1.543-3.429,2.374-6.864,2.492-10.312c0.111-3.445-0.499-6.77-1.837-9.972c-1.342-3.201-3.382-6.229-6.133-9.081
					c-2.751-2.854-6.29-5.253-10.612-7.197c-8.801-3.961-18.222-5.241-28.265-3.844c-10.043,1.396-21.239,6.851-33.588,16.354
					c0.721-5.593,4.666-32.688,5.614-39.975c0.946-7.282,2.96-33.275,2.419-37.646c9.854-2.38,19.153-4.11,27.895-5.2
					c8.736-1.087,17.073-1.279,25.008-0.581c7.932,0.701,15.952,2.113,24.052,4.234c8.101,2.123,16.55,5.161,25.35,9.121
					c13.421,6.04,24.348,13.337,32.789,21.884c8.433,8.549,14.564,17.631,18.402,27.247c3.828,9.616,5.563,19.316,5.194,29.104
					s-2.536,19.079-6.494,27.876c-4.297,9.546-9.205,17.56-14.719,24.041c-5.522,6.483-11.298,11.957-17.335,16.406
					c-6.044,4.457-12.416,7.955-19.116,10.496c-6.706,2.543-13.033,4.449-18.98,5.716c-4.074,0.682-22.56,5.094-26.083,6.555
					c-12.672,3.441-22.411,7.849-29.217,13.214c-6.81,5.365-12.124,12.296-15.948,20.796c-1.679,3.73-6.208,15.188-7.032,17.415
					C135.645,1019.237,132.815,1028.318,132.274,1031.122z"/>
				<path fill="#009900" d="M91.861,1052.479c-24.645-11.093-53.617-0.104-64.709,24.543c-0.444,0.985-0.839,1.98-1.213,2.979
					h91.683C113.212,1068.183,104.271,1058.063,91.861,1052.479z"/>
			</g>
		</g>
	</g>
	
		<use xlink:href="#q3_3"  width="156.039" height="221.995" x="-78.02" y="-110.997" transform="matrix(1 0 0 -1 275.5977 424.8203)" overflow="visible"/>
	
		<use xlink:href="#q4_3"  width="135.977" height="224.814" x="-67.989" y="-112.407" transform="matrix(1.3004 0 0 -1.3004 390.0352 694.1875)" overflow="visible"/>
	
		<use xlink:href="#q5_3"  width="165.084" height="214.962" x="-82.542" y="-107.481" transform="matrix(1.6709 0 0 -1.6709 158.5605 206.6592)" overflow="visible"/>
	
		<use xlink:href="#q5_3"  width="165.084" height="214.962" x="-82.542" y="-107.481" transform="matrix(1.1025 -0.702 -0.702 -1.1025 127.1963 569.4443)" overflow="visible"/>
</g>
</svg>
